<?xml version="1.0" encoding="utf-8"?>
<!-- Generator: Adobe Illustrator 17.1.0, SVG Export Plug-In . SVG Version: 6.00 Build 0)  -->
<!DOCTYPE svg PUBLIC "-//W3C//DTD SVG 1.1//EN" "http://www.w3.org/Graphics/SVG/1.1/DTD/svg11.dtd">
<svg version="1.1" id="Layer_1" xmlns="http://www.w3.org/2000/svg" xmlns:xlink="http://www.w3.org/1999/xlink" x="0px" y="0px"
	 viewBox="0 0 1039 118" enable-background="new 0 0 1039 118" xml:space="preserve">
<g>
	<g>
		<path fill="#B71F66" d="M108.093,98.779c0,3.85-3.15,7-7,7H16.532c-3.85,0-7-3.15-7-7V14.218c0-3.85,3.15-7,7-7h84.561
			c3.85,0,7,3.15,7,7V98.779z"/>
	</g>
	<g>
		<path fill="#B71F66" d="M212.53,98.779c0,3.85-3.15,7-7,7H120.97c-3.85,0-7-3.15-7-7V14.218c0-3.85,3.15-7,7-7h84.561
			c3.85,0,7,3.15,7,7V98.779z"/>
	</g>
	<g>
		<path fill="#B71F66" d="M316.968,98.779c0,3.85-3.15,7-7,7h-84.561c-3.85,0-7-3.15-7-7V14.218c0-3.85,3.15-7,7-7h84.561
			c3.85,0,7,3.15,7,7V98.779z"/>
	</g>
	<g>
		<path fill="#2D2D2D" d="M612.718,98.779c0,3.85-3.15,7-7,7H329.845c-3.85,0-7-3.15-7-7V14.218c0-3.85,3.15-7,7-7h275.873
			c3.85,0,7,3.15,7,7V98.779z"/>
	</g>
	<g>
		<path fill="#A1CC3B" d="M717.155,98.779c0,3.85-3.15,7-7,7h-84.561c-3.85,0-7-3.15-7-7V14.218c0-3.85,3.15-7,7-7h84.561
			c3.85,0,7,3.15,7,7V98.779z"/>
	</g>
	<g>
		<path fill="#A1CC3B" d="M821.593,98.779c0,3.85-3.15,7-7,7h-84.561c-3.85,0-7-3.15-7-7V14.218c0-3.85,3.15-7,7-7h84.561
			c3.85,0,7,3.15,7,7V98.779z"/>
	</g>
	<g>
		<path fill="#A1CC3B" d="M926.03,98.779c0,3.85-3.15,7-7,7h-84.561c-3.85,0-7-3.15-7-7V14.218c0-3.85,3.15-7,7-7h84.561
			c3.85,0,7,3.15,7,7V98.779z"/>
	</g>
	<g>
		<path fill="#A1CC3B" d="M1030.468,98.779c0,3.85-3.15,7-7,7h-84.561c-3.85,0-7-3.15-7-7V14.218c0-3.85,3.15-7,7-7h84.561
			c3.85,0,7,3.15,7,7V98.779z"/>
	</g>
</g>
<g>
	<path fill="#FFFFFF" d="M59.678,22.105l26.937,68.201h-4.489l-8.598-21.874H40.86l-8.692,21.874h-4.49l27.415-68.201H59.678z
		 M72.19,64.803l-14.614-38.59h-0.191l-15.188,38.59H72.19z"/>
</g>
<g>
	<path fill="#FFFFFF" d="M774.531,22.105l26.937,68.201h-4.489l-8.597-21.874h-32.668l-8.692,21.874h-4.489l27.414-68.201H774.531z
		 M787.044,64.803l-14.614-38.59h-0.191l-15.188,38.59H787.044z"/>
</g>
<g>
	<path fill="#FFFFFF" d="M850.644,25.735v-3.63h52.25v3.63h-24.071v64.571h-4.203V25.735H850.644z"/>
</g>
<g>
	<path fill="#FFFFFF" d="M1005.179,86.677v3.63h-46.327V22.105h45.85v3.63h-41.646v27.318h39.163v3.63h-39.163v29.993H1005.179z"/>
</g>
<g>
	<path fill="#FFFFFF" d="M143.527,22.105h4.203v64.571h38.686v3.63h-42.889V22.105z"/>
</g>
<g>
	<path fill="#FFFFFF" d="M246.672,22.105h4.203v64.571h38.686v3.63h-42.889V22.105z"/>
</g>
<g>
	<path fill="#FFFFFF" d="M552.395,91.931c-20.441,0-32.478-15.761-32.478-35.725s12.036-35.725,32.478-35.725
		c20.346,0,32.381,15.761,32.381,35.725S572.74,91.931,552.395,91.931z M552.395,88.301c17.766,0,28.178-14.614,28.178-32.095
		s-10.412-32.095-28.178-32.095c-17.863,0-28.274,14.614-28.274,32.095S534.531,88.301,552.395,88.301z"/>
</g>
<g>
	<path fill="#FFFFFF" d="M690.087,42.451c-1.815-11.463-11.845-18.34-23.212-18.34c-17.862,0-28.273,14.614-28.273,32.095
		s10.411,32.095,28.273,32.095c13.373,0,23.594-11.845,24.357-24.549h4.203c-1.528,16.334-13.563,28.179-28.561,28.179
		c-20.441,0-32.477-15.761-32.477-35.725s12.035-35.725,32.477-35.725c24.071,0,27.414,21.015,27.414,21.97H690.087z"/>
</g>
</svg>
