<?xml version="1.0" encoding="utf-8"?>
<!-- Generator: Adobe Illustrator 17.1.0, SVG Export Plug-In . SVG Version: 6.00 Build 0)  -->
<!DOCTYPE svg PUBLIC "-//W3C//DTD SVG 1.1//EN" "http://www.w3.org/Graphics/SVG/1.1/DTD/svg11.dtd">
<svg version="1.1" id="Layer_5" xmlns="http://www.w3.org/2000/svg" xmlns:xlink="http://www.w3.org/1999/xlink" x="0px" y="0px"
	 viewBox="0 0 168 223.229" enable-background="new 0 0 168 223.229" xml:space="preserve">
<g>
	<g>
		<path fill="#739DD2" d="M132.578,8.594H31.258C19.656,8.594,10,18.25,10,29.695v101.312c0,11.766,9.656,21.258,21.258,21.258
			h81.305v0.008h20.703L154,173.07v-20.805v-21.258V111V29.695C154,18.25,144.344,8.594,132.578,8.594z"/>
		<path fill="#739DD2" d="M158,182.748l-26.395-26.475l-100.348-0.008C17.332,156.266,6,144.936,6,131.008V29.696
			C6,16.09,17.566,4.594,31.258,4.594h101.32c14.02,0,25.422,11.26,25.422,25.102V182.748z M31.258,12.594
			C21.902,12.594,14,20.426,14,29.696v101.312c0,9.516,7.742,17.258,17.258,17.258l103.668,0.008L150,163.393V29.696
			c0-9.27-7.977-17.102-17.422-17.102H31.258z"/>
	</g>
	<g>
		<g opacity="0.35">
			<g>
				<path fill="#739DD2" d="M107.076,153.68l20.734,20.797v-20.805"/>
				<polygon fill="#739DD2" points="131.812,184.155 104.246,156.504 109.91,150.856 123.812,164.799 123.812,153.672 
					131.812,153.672 				"/>
			</g>
			<g>
				<polygon fill="#739DD2" points="127.811,209.228 101.829,209.228 127.811,179.227 				"/>
				<path fill="#739DD2" d="M131.812,213.229H93.07l38.742-44.73V213.229z M110.586,205.229h13.227v-15.273L110.586,205.229z"/>
			</g>
		</g>
		<g>
			<polygon fill="#739DD2" points="153.999,209.228 128.017,209.228 153.999,179.227 			"/>
			<path fill="#739DD2" d="M158,213.229h-38.742L158,168.498V213.229z M136.773,205.229H150v-15.273L136.773,205.229z"/>
		</g>
	</g>
	<circle fill="#5C7EA8" cx="36.285" cy="77.146" r="7.083"/>
	<circle fill="#5C7EA8" cx="127.715" cy="77.146" r="7.083"/>
	<path fill="#5C7EA8" d="M59.813,111.427c0-12.369,10.027-22.395,22.395-22.395s22.395,10.027,22.395,22.395"/>
	<path fill="#FFFFFF" d="M47.216,118.289c0,6.054-4.907,10.961-10.961,10.961s-10.961-4.907-10.961-10.961
		s10.961-29.636,10.961-29.636S47.216,112.235,47.216,118.289z"/>
	<g>
		<path fill="#739DD2" d="M43.661,62.125c-1.724,8.568-9.292,15.021-18.367,15.021c-2.243,0-4.395-0.394-6.388-1.117"/>
		<path fill="#FFFFFF" d="M25.293,79.146c-2.426,0-4.805-0.416-7.07-1.236l1.367-3.762c1.824,0.662,3.742,0.998,5.703,0.998
			c7.945,0,14.844-5.643,16.406-13.416l3.922,0.789C43.684,72.154,35.137,79.146,25.293,79.146z"/>
	</g>
	<g>
		<path fill="#739DD2" d="M120.064,62.125c1.724,8.568,9.292,15.021,18.367,15.021c2.243,0,4.395-0.394,6.388-1.117"/>
		<path fill="#FFFFFF" d="M138.43,79.146c-9.844,0-18.391-6.992-20.328-16.627l3.922-0.789c1.562,7.773,8.461,13.416,16.406,13.416
			c1.961,0,3.883-0.336,5.711-0.998l1.359,3.762C143.234,78.73,140.856,79.146,138.43,79.146z"/>
	</g>
</g>
</svg>
