<?xml version="1.0" encoding="utf-8"?>
<!-- Generator: Adobe Illustrator 17.1.0, SVG Export Plug-In . SVG Version: 6.00 Build 0)  -->
<!DOCTYPE svg PUBLIC "-//W3C//DTD SVG 1.1//EN" "http://www.w3.org/Graphics/SVG/1.1/DTD/svg11.dtd">
<svg version="1.1" id="Layer_10" xmlns="http://www.w3.org/2000/svg" xmlns:xlink="http://www.w3.org/1999/xlink" x="0px" y="0px"
	 viewBox="0 0 168 223.229" enable-background="new 0 0 168 223.229" xml:space="preserve">
<g>
	<g>
		<g>
			<path fill="#FFFFFF" d="M158,183.392l-25.837-25.916l-98.23-0.008c-13.632,0-24.725-11.091-24.725-24.725V33.569
				c0-13.318,11.322-24.572,24.725-24.572h99.182C146.838,8.997,158,20.019,158,33.569V183.392z M33.933,16.828
				c-9.158,0-16.894,7.667-16.894,16.741v99.174c0,9.315,7.579,16.894,16.894,16.894l101.48,0.008l14.756,14.8V33.569
				c0-9.074-7.808-16.741-17.054-16.741H33.933z"/>
			<path fill="#FFFFFF" d="M133.115,12.912H33.933c-11.357,0-20.809,9.453-20.809,20.656v99.174
				c0,11.518,9.453,20.809,20.809,20.809h79.589v0.008h20.266l20.297,20.358v-20.366v-20.809v-19.585V33.568
				C154.084,22.365,144.632,12.912,133.115,12.912z M50.607,86.879l-4.948-4.948c0.028,0.254,0.046,0.512,0.046,0.774
				c0,3.829-3.104,6.934-6.934,6.934s-6.934-3.104-6.934-6.934s3.104-6.934,6.934-6.934c0.262,0,0.52,0.017,0.774,0.046
				L24.099,60.371l8.872-8.872l26.508,26.508L50.607,86.879z M83.521,134.106c-11.969,0-21.704-9.735-21.704-21.704
				c0-11.969,9.735-21.704,21.704-21.704c11.969,0,21.704,9.735,21.704,21.704C105.225,124.371,95.489,134.106,83.521,134.106z
				 M128.271,75.771c3.829,0,6.934,3.104,6.934,6.934s-3.104,6.934-6.934,6.934c-3.829,0-6.934-3.104-6.934-6.934
				c0-0.195,0.013-0.386,0.029-0.576l-5.111,5.111l-9.053-9.053l27.049-27.049l9.053,9.053L127.695,75.8
				C127.885,75.784,128.076,75.771,128.271,75.771z"/>
		</g>
		<g>
			<g opacity="0.35">
				<g>
					<path fill="#FFFFFF" d="M108.151,154.937l20.297,20.358v-20.366"/>
					<polygon fill="#FFFFFF" points="132.365,184.768 105.381,157.701 110.925,152.172 124.534,165.821 124.534,154.929 
						132.365,154.929 					"/>
				</g>
				<g>
					<polygon fill="#FFFFFF" points="128.448,209.313 103.014,209.313 128.448,179.944 					"/>
					<path fill="#FFFFFF" d="M132.365,213.229H94.441l37.925-43.786V213.229z M111.587,205.398h12.947v-14.951L111.587,205.398z"/>
				</g>
			</g>
			<g>
				<polygon fill="#FFFFFF" points="154.084,209.313 128.65,209.313 154.084,179.944 				"/>
				<path fill="#FFFFFF" d="M158,213.229h-37.925L158,169.442V213.229z M137.221,205.398h12.947v-14.951L137.221,205.398z"/>
			</g>
		</g>
	</g>
</g>
</svg>
