<?xml version="1.0" encoding="utf-8"?>
<!-- Generator: Adobe Illustrator 17.1.0, SVG Export Plug-In . SVG Version: 6.00 Build 0)  -->
<!DOCTYPE svg PUBLIC "-//W3C//DTD SVG 1.1//EN" "http://www.w3.org/Graphics/SVG/1.1/DTD/svg11.dtd">
<svg version="1.1" id="Layer_6" xmlns="http://www.w3.org/2000/svg" xmlns:xlink="http://www.w3.org/1999/xlink" x="0px" y="0px"
	 viewBox="0 0 168 223.229" enable-background="new 0 0 168 223.229" xml:space="preserve">
<g>
	<g>
		<path fill="#FFFFFF" d="M158,182.616l-26.509-26.589l-100.783-0.008c-13.986,0-25.367-11.379-25.367-25.367V28.899
			c0-13.664,11.617-25.21,25.367-25.21h101.76c14.08,0,25.532,11.309,25.532,25.21V182.616z M30.708,11.724
			c-9.396,0-17.333,7.866-17.333,17.176v101.752c0,9.557,7.776,17.333,17.333,17.333l104.118,0.008l15.14,15.185V28.899
			c0-9.31-8.011-17.176-17.497-17.176H30.708z"/>
		<path fill="#FFFFFF" d="M132.468,7.706H30.708c-11.652,0-21.35,9.698-21.35,21.193v101.752c0,11.817,9.698,21.35,21.35,21.35
			h81.658v0.008h20.793l20.824,20.887v-20.895v-21.35v-20.094V28.899C153.982,17.404,144.284,7.706,132.468,7.706z M35.938,69.784
			c3.866,0,7.001,3.134,7.001,7.001c0,3.866-3.134,7.001-7.001,7.001c-3.867,0-7.001-3.134-7.001-7.001
			C28.937,72.919,32.072,69.784,35.938,69.784z M134.302,110.427l-10.17,12.42l-9.815-11.986h-0.709l-9.815,11.986l-9.815-11.986
			h-0.709l-9.815,11.986l-9.815-11.986h-0.709l-9.815,11.986l-9.815-11.986h-0.277l-10.423,11.986l-14.794-17.5h110.467l-4.143,5.08
			H134.302z M138.272,84.361h-26.384v-8.303h0.528l21.258-12.941l4.318,7.092l-9.608,5.849h9.889V84.361z"/>
	</g>
	<g>
		<g opacity="0.35">
			<g>
				<path fill="#FFFFFF" d="M106.856,153.422l20.824,20.887v-20.895"/>
				<polygon fill="#FFFFFF" points="131.699,184.028 104.013,156.258 109.701,150.585 123.664,164.589 123.664,153.414 
					131.699,153.414 				"/>
			</g>
			<g>
				<polygon fill="#FFFFFF" points="127.68,209.211 101.585,209.211 127.68,179.079 				"/>
				<path fill="#FFFFFF" d="M131.699,213.229h-38.91l38.91-44.925V213.229z M110.38,205.194h13.284v-15.34L110.38,205.194z"/>
			</g>
		</g>
		<g>
			<polygon fill="#FFFFFF" points="153.982,209.211 127.887,209.211 153.982,179.079 			"/>
			<path fill="#FFFFFF" d="M158,213.229h-38.91L158,168.304V213.229z M136.681,205.194h13.284v-15.34L136.681,205.194z"/>
		</g>
	</g>
</g>
</svg>
