<?xml version="1.0" encoding="utf-8"?>
<!-- Generator: Adobe Illustrator 17.1.0, SVG Export Plug-In . SVG Version: 6.00 Build 0)  -->
<!DOCTYPE svg PUBLIC "-//W3C//DTD SVG 1.1//EN" "http://www.w3.org/Graphics/SVG/1.1/DTD/svg11.dtd">
<svg version="1.1" id="Layer_1" xmlns="http://www.w3.org/2000/svg" xmlns:xlink="http://www.w3.org/1999/xlink" x="0px" y="0px"
	 viewBox="0 0 714.145 101" enable-background="new 0 0 714.145 101" xml:space="preserve">
<g>
	<g>
		<g>
			<g>
				<path fill="#B71F66" d="M101.822,92.561c0,3.85-3.15,7-7,7H10.261c-3.85,0-7-3.15-7-7V8c0-3.85,3.15-7,7-7h84.561
					c3.85,0,7,3.15,7,7V92.561z"/>
			</g>
			<g>
				<path fill="#B71F66" d="M206.259,92.561c0,3.85-3.15,7-7,7h-84.561c-3.85,0-7-3.15-7-7V8c0-3.85,3.15-7,7-7h84.561
					c3.85,0,7,3.15,7,7V92.561z"/>
			</g>
			<g>
				<path fill="#B71F66" d="M310.697,92.561c0,3.85-3.15,7-7,7h-84.561c-3.85,0-7-3.15-7-7V8c0-3.85,3.15-7,7-7h84.561
					c3.85,0,7,3.15,7,7V92.561z"/>
			</g>
			<g>
				<path fill="#A1CC3B" d="M606.447,92.561c0,3.85-3.15,7-7,7H323.573c-3.85,0-7-3.15-7-7V8c0-3.85,3.15-7,7-7h275.873
					c3.85,0,7,3.15,7,7V92.561z"/>
			</g>
			<g>
				<path fill="#FFFFFF" d="M710.884,92.561c0,3.85-3.15,7-7,7h-84.561c-3.85,0-7-3.15-7-7V8c0-3.85,3.15-7,7-7h84.561
					c3.85,0,7,3.15,7,7V92.561z"/>
			</g>
		</g>
	</g>
	<rect x="591.444" y="17.735" fill="#D0E39C" width="5.502" height="5.502"/>
	<rect x="591.444" y="32.735" fill="#D0E39C" width="5.502" height="5.502"/>
	<rect x="591.444" y="47.735" fill="#D0E39C" width="5.502" height="5.502"/>
	<rect x="591.444" y="62.735" fill="#D0E39C" width="5.502" height="5.502"/>
	<rect x="591.444" y="77.735" fill="#D0E39C" width="5.502" height="5.502"/>
	<g>
		<path fill="#FFFFFF" d="M53.406,15.888l26.937,68.201h-4.489l-8.597-21.874H34.589l-8.692,21.874h-4.49l27.415-68.201H53.406z
			 M65.919,58.585l-14.615-38.59h-0.191l-15.188,38.59H65.919z"/>
	</g>
	<g>
		<path fill="#FFFFFF" d="M137.256,15.888h4.203v64.571h38.686v3.63h-42.889V15.888z"/>
	</g>
	<g>
		<path fill="#FFFFFF" d="M240.401,15.888h4.203v64.571h38.686v3.63h-42.889V15.888z"/>
	</g>
	<g>
		<path fill="#FFFFFF" d="M549.167,85.713c-20.441,0-32.478-15.761-32.478-35.725s12.036-35.725,32.478-35.725
			c20.346,0,32.381,15.761,32.381,35.725S569.513,85.713,549.167,85.713z M549.167,82.083c17.767,0,28.178-14.614,28.178-32.095
			s-10.411-32.095-28.178-32.095c-17.862,0-28.274,14.614-28.274,32.095S531.305,82.083,549.167,82.083z"/>
	</g>
	<g>
		<path fill="#A1CC3B" d="M630.706,15.888h4.203v39.259l42.889-39.259h5.444l-31.14,28.369l33.05,39.832h-5.254l-30.853-36.966
			l-14.137,12.895v24.071h-4.203V15.888z"/>
	</g>
</g>
</svg>
