<?xml version="1.0" encoding="utf-8"?>
<!-- Generator: Adobe Illustrator 17.1.0, SVG Export Plug-In . SVG Version: 6.00 Build 0)  -->
<!DOCTYPE svg PUBLIC "-//W3C//DTD SVG 1.1//EN" "http://www.w3.org/Graphics/SVG/1.1/DTD/svg11.dtd">
<svg version="1.1" id="Layer_7" xmlns="http://www.w3.org/2000/svg" xmlns:xlink="http://www.w3.org/1999/xlink" x="0px" y="0px"
	 viewBox="0 0 168 223.229" enable-background="new 0 0 168 223.229" xml:space="preserve">
<g>
	<g>
		<path fill="#FFFFFF" d="M158,182.716l-26.422-26.502l-100.453-0.008c-13.94,0-25.284-11.342-25.284-25.284V29.503
			c0-13.62,11.579-25.128,25.284-25.128h101.427C146.586,4.375,158,15.647,158,29.503V182.716z M31.125,12.384
			c-9.365,0-17.276,7.84-17.276,17.12v101.419c0,9.526,7.75,17.276,17.276,17.276l103.777,0.008l15.09,15.135V29.503
			c0-9.279-7.985-17.12-17.44-17.12H31.125z"/>
		<path fill="#FFFFFF" d="M132.551,8.379H31.125c-11.614,0-21.28,9.667-21.28,21.124v101.419c0,11.778,9.667,21.28,21.28,21.28
			h81.39v0.008h20.725l20.756,20.819v-20.827v-21.28v-20.029v-81.39C153.996,18.045,144.329,8.379,132.551,8.379z M127.683,69.912
			c3.916,0,7.091,3.175,7.091,7.091s-3.175,7.091-7.091,7.091s-7.091-3.175-7.091-7.091S123.767,69.912,127.683,69.912z
			 M36.157,69.912c3.916,0,7.091,3.175,7.091,7.091s-3.175,7.091-7.091,7.091s-7.091-3.175-7.091-7.091S32.241,69.912,36.157,69.912
			z M135.532,115.418H29.826v-8.41h105.707V115.418z"/>
	</g>
	<g>
		<g opacity="0.35">
			<g>
				<path fill="#FFFFFF" d="M107.023,153.618l20.756,20.819V153.61"/>
				<polygon fill="#FFFFFF" points="131.785,184.124 104.19,156.445 109.86,150.79 123.777,164.748 123.777,153.61 131.785,153.61 
									"/>
			</g>
			<g>
				<polygon fill="#FFFFFF" points="127.779,209.224 101.77,209.224 127.779,179.191 				"/>
				<path fill="#FFFFFF" d="M131.785,213.229H93.002l38.783-44.777V213.229z M110.536,205.22h13.24v-15.289L110.536,205.22z"/>
			</g>
		</g>
		<g>
			<polygon fill="#FFFFFF" points="153.995,209.224 127.985,209.224 153.995,179.191 			"/>
			<path fill="#FFFFFF" d="M158,213.229h-38.783L158,168.451V213.229z M136.751,205.22h13.24v-15.289L136.751,205.22z"/>
		</g>
	</g>
</g>
</svg>
