<?xml version="1.0" encoding="utf-8"?>
<!-- Generator: Adobe Illustrator 17.1.0, SVG Export Plug-In . SVG Version: 6.00 Build 0)  -->
<!DOCTYPE svg PUBLIC "-//W3C//DTD SVG 1.1//EN" "http://www.w3.org/Graphics/SVG/1.1/DTD/svg11.dtd">
<svg version="1.1" id="Layer_4" xmlns="http://www.w3.org/2000/svg" xmlns:xlink="http://www.w3.org/1999/xlink" x="0px" y="0px"
	 viewBox="0 0 168 223.229" enable-background="new 0 0 168 223.229" xml:space="preserve">
<g>
	<g opacity="0.35">
		<g>
			<path fill="#739DD2" d="M107.077,153.68l20.734,20.797v-20.805"/>
			<polygon fill="#739DD2" points="131.812,184.155 104.246,156.504 109.91,150.856 123.812,164.799 123.812,153.672 
				131.812,153.672 			"/>
		</g>
		<g>
			<polygon fill="#739DD2" points="127.811,209.228 101.829,209.228 127.811,179.226 			"/>
			<path fill="#739DD2" d="M131.812,213.229H93.07l38.742-44.73V213.229z M110.586,205.229h13.227v-15.273L110.586,205.229z"/>
		</g>
	</g>
	<g>
		<polygon fill="#739DD2" points="154,209.228 128.017,209.228 154,179.226 		"/>
		<path fill="#739DD2" d="M158,213.229h-38.742L158,168.498V213.229z M136.773,205.229H150v-15.273L136.773,205.229z"/>
	</g>
	<g>
		<g>
			<path fill="#739DD2" d="M132.579,8.753H31.258C19.657,8.753,10,18.41,10,29.855v101.312c0,11.766,9.656,21.258,21.258,21.258
				h81.305v0.008h20.703L154,173.23v-20.805v-21.258V111.16V29.855C154,18.41,144.344,8.753,132.579,8.753z"/>
			<path fill="#739DD2" d="M158,182.908l-26.395-26.475l-100.348-0.008C17.332,156.426,6,145.096,6,131.168V29.856
				C6,16.25,17.566,4.754,31.258,4.754h101.32c14.02,0,25.422,11.26,25.422,25.102V182.908z M31.258,12.754
				C21.902,12.754,14,20.586,14,29.856v101.312c0,9.516,7.742,17.258,17.258,17.258l103.668,0.008L150,163.553V29.856
				c0-9.27-7.977-17.102-17.422-17.102H31.258z"/>
		</g>
		<g>
			<circle fill="#5C7EA8" cx="36.286" cy="77.305" r="7.083"/>
			<circle fill="#5C7EA8" cx="127.715" cy="77.305" r="7.083"/>
		</g>
		<rect x="29.307" y="107.28" fill="#5C7EA8" width="105.596" height="8.401"/>
	</g>
</g>
</svg>
