<?xml version="1.0" encoding="utf-8"?>
<!-- Generator: Adobe Illustrator 17.1.0, SVG Export Plug-In . SVG Version: 6.00 Build 0)  -->
<!DOCTYPE svg PUBLIC "-//W3C//DTD SVG 1.1//EN" "http://www.w3.org/Graphics/SVG/1.1/DTD/svg11.dtd">
<svg version="1.1" id="Layer_1" xmlns="http://www.w3.org/2000/svg" xmlns:xlink="http://www.w3.org/1999/xlink" x="0px" y="0px"
	 viewBox="0 0 168 223.229" enable-background="new 0 0 168 223.229" xml:space="preserve">
<g>
	<g>
		<g>
			<path fill="#BC1F65" d="M134.578,12.002H33.258C21.656,12.002,12,21.658,12,33.103v101.312c0,11.766,9.656,21.258,21.258,21.258
				h81.305v0.008h20.703L156,176.479v-20.805v-21.258v-20.008V33.103C156,21.658,146.344,12.002,134.578,12.002z"/>
			<path fill="#BC1F65" d="M158,181.32l-23.566-23.637l-101.176-0.008C20.434,157.676,10,147.242,10,134.414V33.102
				C10,20.578,20.652,10,33.258,10h101.32C147.273,10,158,20.578,158,33.102V181.32z M33.258,14C22.82,14,14,22.746,14,33.102
				v101.312c0,10.621,8.641,19.262,19.258,19.262l102.84,0.008L154,171.641V33.102C154,22.746,145.105,14,134.578,14H33.258z"/>
		</g>
	</g>
	<g>
		<g opacity="0.3">
			<g>
				<path fill="#BC1F65" d="M109.721,153.68l20.734,20.797v-20.805"/>
				<polygon fill="#BC1F65" points="134.457,184.151 106.89,156.506 112.554,150.858 126.457,164.799 126.457,153.67 
					134.457,153.67 				"/>
			</g>
			<g>
				<polygon fill="#BC1F65" points="130.455,209.228 104.473,209.228 130.455,179.226 				"/>
				<path fill="#BC1F65" d="M134.457,213.229H95.718l38.738-44.734V213.229z M113.226,205.229h13.23v-15.273L113.226,205.229z"/>
			</g>
		</g>
		<g>
			<polygon fill="#BC1F65" points="153.999,209.228 128.017,209.228 153.999,179.226 			"/>
			<path fill="#BC1F65" d="M158,213.229h-38.738L158,168.494V213.229z M136.77,205.229H150v-15.273L136.77,205.229z"/>
		</g>
	</g>
	<circle fill="#910E4D" cx="37.991" cy="82.554" r="7.083"/>
	<circle fill="#910E4D" cx="129.421" cy="82.554" r="7.083"/>
	
		<rect x="34.666" y="49.599" transform="matrix(-0.7071 0.7071 -0.7071 -0.7071 118.7299 88.3133)" fill="#FFFFFF" width="12.817" height="38.295"/>
	
		<rect x="119.798" y="49.208" transform="matrix(-0.7071 -0.7071 0.7071 -0.7071 167.0611 206.6918)" fill="#FFFFFF" width="13.079" height="39.077"/>
	<g>
		<circle fill="#910E4D" cx="83.706" cy="112.89" r="20.171"/>
		<path fill="#910E4D" d="M83.706,135.06c-12.227,0-22.172-9.945-22.172-22.17c0-12.227,9.945-22.172,22.172-22.172
			c12.225,0,22.17,9.945,22.17,22.172C105.876,125.115,95.931,135.06,83.706,135.06z M83.706,94.718
			c-10.02,0-18.172,8.152-18.172,18.172c0,10.018,8.152,18.17,18.172,18.17s18.17-8.152,18.17-18.17
			C101.876,102.87,93.726,94.718,83.706,94.718z"/>
	</g>
</g>
</svg>
