<?xml version="1.0" encoding="utf-8"?>
<!-- Generator: Adobe Illustrator 17.1.0, SVG Export Plug-In . SVG Version: 6.00 Build 0)  -->
<!DOCTYPE svg PUBLIC "-//W3C//DTD SVG 1.1//EN" "http://www.w3.org/Graphics/SVG/1.1/DTD/svg11.dtd">
<svg version="1.1" id="Layer_3" xmlns="http://www.w3.org/2000/svg" xmlns:xlink="http://www.w3.org/1999/xlink" x="0px" y="0px"
	 viewBox="0 0 168 223.229" enable-background="new 0 0 168 223.229" xml:space="preserve">
<g>
	<g>
		<g>
			<path fill="#DEEBBC" d="M107.077,153.681l20.734,20.797v-20.805"/>
			<polygon fill="#DEEBBC" points="131.812,184.155 104.246,156.506 109.91,150.858 123.812,164.803 123.812,153.674 
				131.812,153.674 			"/>
		</g>
		<g>
			<polygon fill="#DEEBBC" points="127.811,209.23 101.829,209.23 127.811,179.228 			"/>
			<path fill="#DEEBBC" d="M131.812,213.229H93.07l38.742-44.727V213.229z M110.586,205.229h13.227v-15.273L110.586,205.229z"/>
		</g>
	</g>
	<g>
		<path fill="#A1CC3B" d="M132.578,10.001H31.258C19.656,10.001,10,19.658,10,31.103v101.312c0,11.766,9.656,21.258,21.258,21.258
			h81.305v0.008h20.703L154,174.478v-20.805v-21.258v-20.008V31.103C154,19.658,144.344,10.001,132.578,10.001z"/>
		<path fill="#A1CC3B" d="M158,184.155l-26.395-26.473l-100.348-0.008C17.332,157.674,6,146.342,6,132.416V31.104
			C6,17.498,17.566,6.002,31.258,6.002h101.32c14.02,0,25.422,11.26,25.422,25.102V184.155z M31.258,14.002
			C21.902,14.002,14,21.834,14,31.104v101.312c0,9.516,7.742,17.258,17.258,17.258l103.668,0.008L150,164.803V31.104
			c0-9.27-7.977-17.102-17.422-17.102H31.258z"/>
	</g>
	<g>
		<circle fill="#84AA30" cx="36.285" cy="78.553" r="7.083"/>
		<circle fill="#84AA30" cx="127.714" cy="78.553" r="7.083"/>
	</g>
	<path fill="#84AA30" d="M111.495,90.993c0,16.174-13.112,29.286-29.286,29.286s-29.286-13.112-29.286-29.286"/>
	<g>
		<g>
			<defs>
				<path id="SVGID_3_" d="M111.495,90.993c0,16.174-13.112,29.286-29.286,29.286s-29.286-13.112-29.286-29.286"/>
			</defs>
			<clipPath id="SVGID_1_">
				<use xlink:href="#SVGID_3_"  overflow="visible"/>
			</clipPath>
			<rect x="50.469" y="89.968" clip-path="url(#SVGID_1_)" fill="#FFFFFF" width="65.342" height="10.321"/>
		</g>
	</g>
	<g>
		<polygon fill="#A1CC3B" points="154,209.23 128.017,209.23 154,179.228 		"/>
		<path fill="#A1CC3B" d="M158,213.229h-38.742L158,168.502V213.229z M136.773,205.229H150v-15.273L136.773,205.229z"/>
	</g>
</g>
</svg>
