<?xml version="1.0" encoding="utf-8"?>
<!-- Generator: Adobe Illustrator 17.1.0, SVG Export Plug-In . SVG Version: 6.00 Build 0)  -->
<!DOCTYPE svg PUBLIC "-//W3C//DTD SVG 1.1//EN" "http://www.w3.org/Graphics/SVG/1.1/DTD/svg11.dtd">
<svg version="1.1" id="Layer_12" xmlns="http://www.w3.org/2000/svg" xmlns:xlink="http://www.w3.org/1999/xlink" x="0px" y="0px"
	 viewBox="0 0 168 223.229" enable-background="new 0 0 168 223.229" xml:space="preserve">
<g>
	<path fill="#E6E7E8" d="M13.994,11.72L13.994,11.72c-0.01,0.009-0.019,0.017-0.028,0.026l-0.001,0.001
		c-0.005,0.004-0.009,0.009-0.014,0.013l0,0c-0.005,0.004-0.009,0.008-0.014,0.013l-0.001,0.001
		c-0.005,0.004-0.009,0.009-0.014,0.013l0,0c-0.004,0.004-0.009,0.009-0.013,0.013c-0.001,0.001,0,0-0.001,0.001
		c-0.004,0.004-0.008,0.008-0.013,0.012c-0.001,0.001-0.001,0.001-0.002,0.002c-0.004,0.004-0.008,0.007-0.011,0.011
		c-0.001,0.001-0.002,0.002-0.003,0.003c-0.004,0.004-0.007,0.007-0.011,0.01c-0.001,0.001-0.002,0.002-0.003,0.003
		c-0.004,0.003-0.007,0.006-0.01,0.01c-0.001,0.001-0.003,0.003-0.004,0.004c-0.003,0.003-0.007,0.006-0.01,0.009
		c-0.001,0.001-0.003,0.003-0.004,0.004c-0.003,0.003-0.006,0.006-0.009,0.008c-0.002,0.002-0.003,0.003-0.005,0.005
		c-0.003,0.003-0.006,0.006-0.009,0.009c-0.001,0.001-0.003,0.003-0.004,0.004c-0.003,0.003-0.006,0.006-0.009,0.009
		c-0.001,0.001-0.003,0.003-0.005,0.004c-0.003,0.003-0.006,0.006-0.009,0.009c-0.002,0.002-0.003,0.003-0.005,0.004
		c-0.003,0.003-0.006,0.005-0.009,0.008c-0.002,0.002-0.004,0.004-0.005,0.005c-0.003,0.003-0.006,0.006-0.009,0.008
		c-0.002,0.002-0.004,0.004-0.005,0.005c-0.003,0.003-0.006,0.005-0.008,0.008c-0.002,0.002-0.004,0.004-0.005,0.005
		c-0.003,0.003-0.005,0.005-0.008,0.008c-0.002,0.002-0.004,0.004-0.006,0.005c-0.003,0.003-0.005,0.005-0.007,0.007
		c-0.002,0.002-0.004,0.004-0.006,0.006c-0.003,0.003-0.005,0.005-0.008,0.008c-0.002,0.002-0.004,0.004-0.005,0.005
		c-0.003,0.003-0.005,0.005-0.008,0.007c-0.002,0.002-0.005,0.004-0.006,0.006c-0.002,0.002-0.005,0.005-0.007,0.007
		c-0.002,0.002-0.005,0.005-0.007,0.007c-0.002,0.002-0.003,0.003-0.005,0.005c-0.003,0.003-0.006,0.006-0.009,0.009
		c-0.001,0.001-0.003,0.003-0.004,0.004c-0.003,0.003-0.007,0.007-0.01,0.01c0,0,0,0,0,0c-4.435,4.338-7.318,10.241-7.617,16.685
		c0,0.001,0,0.002,0,0.003c-0.001,0.012-0.001,0.025-0.002,0.038c0,0,0,0.001,0,0.002c0,0.006,0,0.012-0.001,0.017
		c0,0.001,0,0.002,0,0.003c0,0.005,0,0.01-0.001,0.015c0,0.002,0,0.003,0,0.005c0,0.005,0,0.01-0.001,0.015c0,0.002,0,0.003,0,0.005
		c0,0.005,0,0.009-0.001,0.014c0,0.002,0,0.004,0,0.006c0,0.004,0,0.01-0.001,0.014c0,0.002,0,0.004,0,0.006
		c0,0.004,0,0.009-0.001,0.013c0,0.003,0,0.005,0,0.007c0,0.004,0,0.009,0,0.013c0,0.002,0,0.004,0,0.006
		c0,0.004,0,0.009-0.001,0.013c0,0.003,0,0.004,0,0.007c0,0.004,0,0.008,0,0.012c0,0.003,0,0.005,0,0.008c0,0.004,0,0.008,0,0.012
		c0,0.003,0,0.006,0,0.009c0,0.004,0,0.008,0,0.012c0,0.003,0,0.005,0,0.007c0,0.004,0,0.009,0,0.013c0,0.003,0,0.005,0,0.007
		c0,0.004,0,0.008,0,0.013c0,0.003,0,0.005,0,0.008c0,0.004,0,0.008,0,0.012c0,0.003,0,0.006,0,0.009c0,0.003,0,0.008,0,0.012
		c0,0.003,0,0.005,0,0.008c0,0.002,0,0.003,0,0.006l7.996,0.255c0.142-4.451,2.209-8.82,5.669-11.987l-5.4-5.902
		C14.182,11.543,14.088,11.631,13.994,11.72z"/>
	<path fill="#E6E7E8" d="M14,129.09H6v2.078c0,0.007,0,0.013,0,0.02c0,0.002,0,0.004,0,0.006c0,0.004,0,0.009,0,0.013
		c0,0.003,0,0.005,0,0.008c0,0.004,0,0.008,0,0.012c0,0.002,0,0.005,0,0.007c0,0.004,0,0.008,0,0.012c0,0.003,0,0.006,0,0.009
		c0,0.003,0,0.007,0,0.01c0,0.003,0,0.006,0,0.009c0,0.003,0,0.006,0,0.01c0,0.003,0,0.006,0,0.01c0,0.004,0,0.006,0,0.011
		c0,0.003,0,0.005,0,0.008c0,0.003,0,0.008,0,0.012c0,0.003,0,0.006,0,0.009c0,0.006,0,0.012,0,0.018c0,0,0,0,0,0.001
		c0,0.007,0,0.012,0,0.019c0,0.003,0,0.005,0,0.008c0,0.003,0,0.008,0,0.012c0,0.003,0,0.006,0,0.008c0,0.003,0,0.008,0,0.011
		c0,0.003,0,0.006,0,0.009c0,0.004,0,0.007,0,0.011c0,0.003,0,0.006,0,0.008c0,0.003,0,0.008,0,0.011c0,0.003,0,0.006,0,0.008
		c0,0.004,0,0.007,0,0.012c0,0.003,0,0.006,0,0.008c0,0.003,0,0.007,0,0.01c0,0.003,0,0.007,0,0.01c0,0.003,0,0.008,0,0.011
		c0,0.003,0,0.005,0,0.008c0,0.005,0,0.01,0,0.015c0,0.002,0,0.003,0,0.004c0,0.007,0,0.012,0,0.019c0,0.003,0,0.004,0,0.007
		c0,0.004,0,0.008,0,0.013c0,0.003,0,0.005,0,0.008c0,0.004,0,0.008,0,0.012c0,0.002,0,0.004,0,0.007c0,0.004,0,0.009,0,0.013
		c0,0.002,0,0.004,0,0.007c0,0.004,0,0.009,0,0.013c0,0.002,0,0.005,0,0.007c0,0.004,0,0.008,0,0.012c0,0.003,0,0.006,0,0.008
		c0,0.004,0,0.008,0,0.012c0,0.002,0,0.004,0,0.007c0,0.004,0,0.009,0,0.014c0,0.002,0,0.004,0,0.006
		c0,0.013,0.001,0.026,0.001,0.039c0,0.002,0,0.003,0,0.005c0,0.005,0,0.01,0,0.015c0,0.002,0,0.003,0,0.005
		c0,0.005,0,0.009,0,0.014c0,0.002,0,0.005,0,0.007c0,0.004,0,0.009,0,0.013c0,0.002,0,0.005,0,0.007c0,0.003,0,0.008,0,0.011
		c0,0.003,0,0.006,0,0.009c0,0.003,0,0.008,0,0.011c0,0.003,0,0.005,0,0.008c0,0.004,0,0.008,0,0.012c0,0.002,0,0.005,0,0.008
		c0,0.004,0,0.008,0,0.013c0,0.003,0,0.004,0,0.007c0,0.005,0,0.01,0,0.016c0,0.001,0,0.002,0,0.004
		c0,0.013,0.001,0.026,0.001,0.039c0,0.002,0,0.004,0,0.006c0,0.004,0,0.009,0,0.013c0,0.002,0,0.005,0,0.007
		c0,0.004,0,0.009,0,0.013c0,0.002,0,0.005,0,0.007c0,0.004,0,0.008,0,0.013c0,0.002,0,0.004,0,0.007c0,0.005,0,0.008,0,0.013
		c0,0.002,0,0.004,0,0.006c0,0.004,0,0.009,0,0.014c0,0.002,0,0.004,0,0.006c0,0.004,0,0.01,0.001,0.015c0,0.002,0,0.003,0,0.005
		c0,0.007,0,0.011,0.001,0.018c0,0,0,0,0,0.001c0,0.007,0,0.013,0.001,0.02c0,0,0,0,0,0c0,0.007,0,0.013,0.001,0.019
		c0,0.001,0,0.002,0,0.004c0,0.005,0,0.01,0.001,0.015c0,0.003,0,0.005,0,0.007c0,0.004,0,0.008,0,0.012c0,0.002,0,0.005,0,0.007
		c0,0.004,0,0.009,0,0.013c0,0.002,0,0.005,0,0.007c0,0.005,0,0.008,0.001,0.013c0,0.002,0,0.004,0,0.006
		c0,0.004,0,0.009,0.001,0.013c0,0.002,0,0.004,0,0.006c0,0.005,0,0.01,0.001,0.015c0,0.002,0,0.003,0,0.005
		c0,0.007,0,0.012,0.001,0.019c0.001,0.013,0.001,0.026,0.002,0.04c0,0.002,0,0.002,0,0.003c0,0.006,0,0.01,0.001,0.016
		c0,0.001,0,0.003,0,0.004c0,0.005,0,0.011,0.001,0.016c0,0.002,0,0.003,0,0.004c0,0.005,0,0.01,0.001,0.015
		c0,0.002,0,0.003,0,0.005c0,0.005,0,0.009,0.001,0.014c0,0.002,0,0.004,0,0.006c0,0.005,0,0.009,0.001,0.014
		c0,0.002,0,0.004,0,0.005c0,0.005,0,0.01,0.001,0.015c0,0.002,0,0.003,0,0.005c0,0.005,0,0.01,0.001,0.015c0,0.002,0,0.003,0,0.004
		c0.001,0.013,0.001,0.026,0.002,0.039c0,0,0,0.001,0,0.002c0,0.006,0.001,0.012,0.001,0.018c0,0.002,0,0.003,0,0.005
		c0,0.005,0,0.009,0.001,0.014c0,0.002,0,0.004,0,0.007c0,0.004,0,0.008,0.001,0.013c0,0.002,0,0.005,0,0.007
		c0,0.005,0,0.008,0.001,0.013c0,0.002,0,0.004,0,0.006c0,0.005,0,0.009,0.001,0.014c0,0.002,0,0.003,0,0.005
		c0,0.005,0.001,0.011,0.001,0.016c0,0.001,0,0.002,0,0.004c0,0.007,0.001,0.012,0.001,0.019c0,0,0,0,0,0.001
		c0.001,0.02,0.002,0.039,0.003,0.059c0,0.001,0,0.002,0,0.004c0,0.005,0.001,0.01,0.001,0.015c0,0.002,0,0.004,0,0.005
		c0,0.005,0.001,0.009,0.001,0.014c0,0.002,0,0.004,0,0.005c0,0.005,0.001,0.01,0.001,0.015c0,0.002,0,0.003,0,0.005
		c0,0.005,0.001,0.01,0.001,0.015c0,0.002,0,0.003,0,0.005c0,0.005,0.001,0.01,0.001,0.015c0,0.001,0,0.003,0,0.005
		c0,0.006,0.001,0.012,0.001,0.018c0,0,0,0,0,0.001c0.001,0.02,0.003,0.039,0.004,0.059c0,0.001,0,0.002,0,0.004
		c0,0.006,0.001,0.011,0.001,0.016c0,0.001,0,0.002,0,0.003c0,0.005,0.001,0.012,0.001,0.017c0,0.001,0,0.002,0,0.003
		c0,0.005,0.001,0.011,0.001,0.016c0,0.001,0,0.002,0,0.003c0,0.005,0.001,0.011,0.001,0.016c0,0.001,0,0.003,0,0.004
		c0,0.005,0.001,0.011,0.001,0.016c0,0.001,0,0.002,0,0.003c0,0.007,0.001,0.012,0.001,0.019c0,0,0,0,0,0.001
		c0.001,0.02,0.003,0.04,0.004,0.06c0,0,0,0.001,0,0.001c0,0.007,0.001,0.011,0.001,0.018c0,0.001,0,0.003,0,0.004
		c0,0.005,0.001,0.011,0.001,0.016c0,0.001,0,0.003,0,0.004c0,0.005,0.001,0.01,0.001,0.015c0,0.002,0,0.004,0,0.006
		c0,0.005,0.001,0.009,0.001,0.014c0,0.002,0,0.003,0,0.005c0,0.005,0.001,0.01,0.001,0.015c0,0.002,0,0.003,0,0.005
		c0,0.006,0.001,0.012,0.001,0.018l0,0.001c0.002,0.02,0.003,0.04,0.005,0.06c0,0,0,0,0,0c0,0.007,0.001,0.013,0.002,0.019
		c0,0,0,0.001,0,0.002c0,0.005,0.001,0.012,0.001,0.017c0,0.001,0,0.003,0,0.004c0,0.005,0.001,0.011,0.001,0.016
		c0,0.002,0,0.002,0,0.004c0,0.005,0.001,0.01,0.001,0.016c0,0.001,0,0.003,0,0.004c0,0.005,0.001,0.011,0.001,0.016
		c0,0.001,0,0.002,0,0.003c0.001,0.007,0.001,0.012,0.002,0.018c0,0,0,0.001,0,0.001c0.002,0.027,0.005,0.052,0.007,0.079
		c0,0.001,0,0.001,0,0.003c0.001,0.006,0.001,0.011,0.002,0.017c0,0.001,0,0.002,0,0.002c0.001,0.006,0.001,0.012,0.002,0.018
		c0,0.001,0,0.001,0,0.002c0.001,0.007,0.001,0.011,0.002,0.018c0,0,0,0.001,0,0.001c0.001,0.007,0.001,0.012,0.002,0.019
		c0,0,0,0.001,0,0.001c0.002,0.027,0.005,0.053,0.007,0.079c0,0,0,0,0,0.001c0.001,0.007,0.001,0.012,0.002,0.019
		c0,0,0,0.001,0,0.001c0.001,0.007,0.001,0.011,0.002,0.018c0,0.001,0,0.002,0,0.003c0.001,0.006,0.001,0.011,0.002,0.017
		c0,0.001,0,0.002,0,0.002c0,0.005,0.001,0.011,0.002,0.016c0,0.001,0,0.002,0,0.004c0,0.005,0.001,0.011,0.002,0.016
		c0,0.001,0,0.002,0,0.003c0.001,0.006,0.001,0.011,0.002,0.017c0,0.001,0,0.002,0,0.002c0.003,0.026,0.005,0.052,0.008,0.079
		c0,0,0,0.001,0,0.001c0.001,0.007,0.001,0.012,0.002,0.018c0,0.001,0,0.001,0,0.003c0,0.005,0.001,0.012,0.002,0.017
		c0,0.001,0,0.002,0,0.003c0.001,0.006,0.001,0.011,0.002,0.017c0,0.001,0,0.001,0,0.002c0.001,0.006,0.001,0.011,0.002,0.017
		c0,0.001,0,0.002,0,0.003c0.001,0.007,0.001,0.011,0.002,0.018c0,0,0,0.001,0,0.001c0.004,0.033,0.007,0.066,0.011,0.099l0,0.001
		c0.001,0.007,0.001,0.013,0.002,0.019l0,0c0.001,0.007,0.001,0.012,0.002,0.019c0,0,0,0.001,0,0.001
		c0.001,0.007,0.001,0.013,0.002,0.019v0c0.005,0.046,0.011,0.092,0.016,0.138c0,0,0,0,0,0c0.002,0.013,0.003,0.026,0.005,0.039
		c0.006,0.053,0.013,0.105,0.02,0.158l0,0.001c0.64,5.018,2.758,9.58,5.902,13.236l6.065-5.217
		c-2.69-3.127-4.171-7.116-4.171-11.233V129.09z"/>
	<rect x="6" y="99.09" fill="#E6E7E8" width="8" height="20"/>
	<path fill="#E6E7E8" d="M23.53,146.596l-3.6,7.144c2.756,1.389,5.8,2.288,9.016,2.581c0.001,0,0,0,0.001,0
		c0.008,0.001,0.015,0.001,0.022,0.002l0.001,0c0.038,0.003,0.077,0.007,0.116,0.01c0.001,0,0,0,0.001,0
		c0.046,0.004,0.093,0.008,0.139,0.012l0.001,0c0.007,0.001,0.015,0.001,0.023,0.002l0.001,0c0.039,0.003,0.077,0.006,0.116,0.009
		c0.001,0,0.002,0,0.003,0c0.007,0.001,0.014,0.001,0.021,0.002l0.001,0c0.031,0.002,0.062,0.005,0.093,0.007c0.001,0,0,0,0.001,0
		c0.007,0,0.014,0.001,0.021,0.001c0.002,0,0.002,0,0.004,0c0.007,0,0.013,0.001,0.02,0.001c0.001,0,0.002,0,0.003,0
		c0.007,0,0.014,0.001,0.021,0.001c0.001,0,0.001,0,0.001,0c0.023,0.002,0.046,0.003,0.069,0.005c0.001,0,0.002,0,0.002,0
		c0.007,0,0.013,0.001,0.02,0.001c0.002,0,0.002,0,0.003,0c0.007,0,0.013,0.001,0.02,0.001c0.001,0,0.002,0,0.002,0
		c0.007,0,0.014,0.001,0.022,0.001c0.001,0,0,0,0.001,0c0.015,0.001,0.03,0.002,0.046,0.003c0.002,0,0.003,0,0.005,0
		c0.006,0,0.012,0.001,0.018,0.001c0.002,0,0.004,0,0.005,0c0.006,0,0.012,0.001,0.018,0.001c0.002,0,0.004,0,0.005,0
		c0.006,0,0.012,0.001,0.019,0.001c0.001,0,0.003,0,0.004,0c0.007,0,0.014,0.001,0.02,0.001c0.001,0,0.001,0,0.002,0
		c0.015,0.001,0.031,0.002,0.046,0.003c0.001,0,0.001,0,0.002,0c0.007,0,0.013,0.001,0.02,0.001c0.002,0,0.003,0,0.004,0
		c0.006,0,0.012,0.001,0.018,0.001c0.002,0,0.004,0,0.005,0c0.007,0,0.013,0.001,0.019,0.001c0.001,0,0.002,0,0.002,0
		c0.008,0,0.015,0.001,0.023,0.001h0c0.016,0.001,0.031,0.002,0.046,0.002c0.002,0,0.003,0,0.004,0c0.006,0,0.012,0.001,0.018,0.001
		c0.002,0,0.004,0,0.006,0c0.005,0,0.011,0.001,0.017,0.001c0.003,0,0.004,0,0.007,0c0.006,0,0.011,0.001,0.017,0.001
		c0.002,0,0.004,0,0.006,0c0.006,0,0.012,0.001,0.019,0.001c0.001,0,0.003,0,0.004,0c0.015,0.001,0.03,0.001,0.045,0.002
		c0.003,0,0.004,0,0.006,0c0.005,0,0.011,0,0.016,0.001c0.003,0,0.005,0,0.007,0c0.005,0,0.01,0,0.015,0.001
		c0.003,0,0.005,0,0.007,0c0.005,0,0.011,0,0.016,0.001c0.003,0,0.003,0,0.006,0c0.006,0,0.012,0,0.018,0.001
		c0.001,0,0.003,0,0.004,0c0.015,0.001,0.03,0.001,0.045,0.002c0.003,0,0.004,0,0.007,0c0.005,0,0.011,0,0.016,0.001
		c0.003,0,0.004,0,0.007,0c0.005,0,0.01,0,0.016,0.001c0.003,0,0.004,0,0.007,0c0.006,0,0.011,0,0.017,0.001
		c0.003,0,0.003,0,0.006,0c0.006,0,0.012,0,0.018,0.001c0.002,0,0.002,0,0.004,0c0.007,0,0.015,0,0.023,0.001
		c0.001,0,0.002,0,0.003,0c0.006,0,0.013,0,0.019,0.001c0.003,0,0.005,0,0.007,0c0.005,0,0.01,0,0.015,0c0.003,0,0.005,0,0.008,0
		c0.005,0,0.01,0,0.014,0c0.003,0,0.006,0,0.008,0c0.005,0,0.01,0,0.016,0c0.003,0,0.004,0,0.006,0c0.007,0,0.014,0,0.022,0.001
		h0.001c0.008,0,0.016,0,0.023,0.001l0.001,0c0.007,0,0.014,0,0.021,0.001c0.003,0,0.003,0,0.006,0c0.006,0,0.011,0,0.017,0
		c0.003,0,0.004,0,0.007,0c0.005,0,0.01,0,0.016,0c0.003,0,0.005,0,0.007,0c0.005,0,0.011,0,0.016,0c0.003,0,0.004,0,0.007,0
		c0.006,0,0.012,0,0.019,0c0.002,0,0.002,0,0.004,0c0.007,0,0.015,0,0.022,0c0.002,0,0.003,0,0.005,0c0.006,0,0.011,0,0.017,0
		c0.003,0,0.006,0,0.008,0c0.005,0,0.01,0,0.014,0c0.003,0,0.005,0,0.008,0c0.005,0,0.01,0,0.015,0c0.003,0,0.006,0,0.008,0
		c0.005,0,0.01,0,0.015,0c0.003,0,0.005,0,0.007,0c0.006,0,0.012,0,0.018,0c0.002,0,0.003,0,0.005,0c0.007,0,0.015,0,0.022,0
		c0.002,0,0.004,0,0.006,0c0.005,0,0.01,0,0.016,0c0.003,0,0.006,0,0.009,0c0.004,0,0.009,0,0.013,0c0.003,0,0.006,0,0.009,0
		c0.005,0,0.009,0,0.014,0c0.003,0,0.006,0,0.008,0c0.005,0,0.01,0,0.016,0c0.003,0,0.005,0,0.007,0c0.006,0,0.012,0,0.018,0
		c0.002,0,0.003,0,0.005,0c0.007,0,0.015,0,0.022,0c0.002,0,0.006,0,0.008,0c0.005,0,0.01,0,0.015,0c0.003,0,0.005,0,0.009,0
		c0.004,0,0.009,0,0.014,0c0.003,0,0.005,0,0.009,0c0.004,0,0.009,0,0.013,0c0.003,0,0.006,0,0.01,0c0.005,0,0.01,0,0.015,0
		c0.003,0,0.004,0,0.007,0c0.007,0,0.014,0,0.021,0c0.001,0,0.001,0,0.002,0c0.007,0,0.015,0,0.022,0c0.002,0,0.005,0,0.007,0
		c0.005,0,0.01,0,0.015,0c0.003,0,0.006,0,0.009,0c0.004,0,0.009,0,0.014,0c0.003,0,0.005,0,0.009,0c0.005,0,0.009,0,0.014,0
		c0.003,0,0.006,0,0.008,0c0.005,0,0.01,0,0.015,0c0.003,0,0.005,0,0.008,0c0.007,0,0.015,0,0.022,0l8.252,0.001l0.001-8
		l-8.253-0.001C28.54,148.426,25.94,147.81,23.53,146.596z"/>
	<path fill="#E6E7E8" d="M31.239,4.754c-0.002,0-0.004,0-0.007,0c-0.004,0-0.008,0-0.012,0c-0.003,0-0.005,0-0.008,0
		c-0.003,0-0.007,0-0.011,0c-0.003,0-0.005,0-0.008,0c-0.003,0-0.008,0-0.011,0c-0.003,0-0.006,0-0.008,0c-0.004,0-0.007,0-0.011,0
		c-0.002,0-0.005,0-0.007,0c-0.004,0-0.009,0-0.013,0c-0.002,0-0.004,0-0.005,0c-0.007,0-0.012,0-0.019,0c-0.001,0-0.003,0-0.005,0
		c-0.004,0-0.009,0-0.013,0c-0.003,0-0.006,0-0.009,0c-0.004,0-0.007,0-0.011,0c-0.002,0-0.005,0-0.007,0c-0.003,0-0.008,0-0.012,0
		c-0.002,0-0.005,0-0.007,0c-0.004,0-0.008,0-0.012,0c-0.002,0-0.004,0-0.007,0c-0.004,0-0.009,0-0.013,0c-0.002,0-0.004,0-0.006,0
		c-0.013,0-0.025,0-0.038,0c-0.001,0-0.003,0-0.004,0c-0.005,0-0.009,0-0.014,0c-0.002,0-0.004,0-0.007,0c-0.003,0-0.008,0-0.011,0
		c-0.003,0-0.006,0-0.009,0c-0.003,0-0.007,0-0.011,0c-0.003,0-0.005,0-0.007,0c-0.004,0-0.009,0-0.013,0c-0.002,0-0.004,0-0.006,0
		c-0.006,0-0.012,0-0.018,0c0,0,0,0-0.001,0c-0.007,0-0.013,0-0.019,0c-0.001,0-0.002,0-0.003,0c-0.006,0-0.01,0-0.016,0
		c-0.001,0-0.003,0-0.004,0c-0.005,0-0.009,0-0.014,0c-0.002,0-0.004,0-0.006,0c-0.005,0-0.009,0-0.014,0c-0.002,0-0.004,0-0.005,0
		c-0.004,0-0.01,0-0.014,0c-0.002,0-0.004,0-0.006,0c-0.005,0-0.01,0-0.016,0c-0.001,0-0.002,0-0.003,0
		c-0.013,0-0.026,0.001-0.039,0.001c-0.001,0-0.001,0-0.002,0c-0.005,0-0.012,0-0.017,0c-0.002,0-0.003,0-0.005,0
		c-0.005,0-0.009,0-0.014,0c-0.002,0-0.004,0-0.006,0c-0.004,0-0.008,0-0.013,0c-0.002,0-0.005,0-0.007,0c-0.004,0-0.008,0-0.013,0
		c-0.002,0-0.004,0-0.006,0c-0.004,0-0.009,0-0.013,0c-0.002,0-0.004,0-0.006,0c-0.007,0-0.012,0-0.019,0c-0.001,0-0.002,0-0.003,0
		c-0.005,0-0.01,0-0.015,0c-0.002,0-0.005,0-0.007,0c-0.004,0-0.008,0-0.012,0c-0.002,0-0.005,0-0.007,0c-0.003,0-0.008,0-0.011,0
		c-0.003,0-0.005,0-0.008,0c-0.004,0-0.008,0-0.012,0c-0.002,0-0.005,0-0.007,0c-0.004,0-0.01,0-0.014,0c-0.001,0-0.003,0-0.005,0
		c-0.007,0-0.012,0-0.019,0.001c0,0-0.001,0-0.001,0c-0.006,0-0.011,0-0.017,0.001c-0.002,0-0.005,0-0.007,0
		c-0.004,0-0.008,0-0.012,0c-0.002,0-0.004,0-0.006,0c-0.004,0-0.009,0-0.013,0c-0.002,0-0.005,0-0.007,0c-0.003,0-0.008,0-0.012,0
		c-0.002,0-0.005,0-0.007,0c-0.004,0-0.008,0-0.012,0c-0.002,0-0.004,0-0.007,0c-0.012,0-0.025,0.001-0.037,0.001
		c-0.002,0-0.003,0-0.005,0c-0.004,0-0.01,0-0.014,0.001c-0.002,0-0.004,0-0.006,0c-0.004,0-0.008,0-0.013,0
		c-0.002,0-0.005,0-0.007,0c-0.004,0-0.009,0-0.013,0c-0.002,0-0.004,0-0.006,0c-0.004,0-0.009,0-0.013,0.001
		c-0.002,0-0.004,0-0.006,0c-0.005,0-0.012,0-0.017,0.001c-0.001,0-0.001,0-0.002,0c-0.013,0.001-0.025,0.001-0.038,0.002
		c-0.001,0-0.003,0-0.004,0c-0.005,0-0.01,0-0.014,0.001c-0.002,0-0.004,0-0.006,0c-0.005,0-0.009,0-0.014,0.001
		c-0.002,0-0.003,0-0.005,0c-0.005,0-0.009,0-0.014,0.001c-0.002,0-0.004,0-0.006,0c-0.004,0-0.01,0-0.014,0.001
		c-0.002,0-0.003,0-0.005,0c-0.006,0-0.011,0-0.017,0.001c-0.001,0-0.002,0-0.003,0c-0.007,0-0.012,0.001-0.019,0.001
		c-0.001,0-0.003,0-0.004,0c-0.005,0-0.009,0-0.014,0.001c-0.002,0-0.005,0-0.007,0c-0.004,0-0.009,0-0.013,0.001
		c-0.002,0-0.004,0-0.006,0c-0.005,0-0.008,0-0.013,0.001c-0.002,0-0.004,0-0.006,0c-0.004,0-0.009,0-0.013,0.001
		c-0.002,0-0.004,0-0.006,0c-0.004,0-0.008,0-0.012,0.001c-0.003,0-0.005,0-0.007,0c-0.006,0-0.012,0.001-0.018,0.001
		c-0.002,0-0.003,0-0.005,0c-0.004,0-0.01,0.001-0.014,0.001c-0.002,0-0.004,0-0.006,0c-0.004,0-0.008,0-0.013,0.001
		c-0.002,0-0.005,0-0.007,0c-0.004,0-0.008,0-0.012,0.001c-0.003,0-0.005,0-0.007,0c-0.004,0-0.008,0-0.012,0.001
		c-0.002,0-0.004,0-0.006,0c-0.004,0-0.009,0.001-0.013,0.001c-0.002,0-0.004,0-0.006,0c-0.006,0-0.011,0.001-0.017,0.001
		c0,0-0.001,0-0.001,0c-0.007,0-0.012,0.001-0.019,0.001c-0.002,0-0.004,0-0.006,0c-0.004,0-0.009,0.001-0.013,0.001
		c-0.002,0-0.004,0-0.007,0c-0.004,0-0.008,0-0.012,0.001c-0.002,0-0.005,0-0.007,0c-0.003,0-0.009,0.001-0.012,0.001
		c-0.002,0-0.004,0-0.007,0c-0.004,0-0.009,0.001-0.013,0.001c-0.002,0-0.004,0-0.006,0c-0.005,0-0.011,0.001-0.016,0.001
		c-0.001,0-0.002,0-0.003,0c-0.007,0-0.013,0.001-0.019,0.001c-0.001,0-0.001,0-0.002,0c-0.005,0-0.012,0.001-0.017,0.001
		c-0.002,0-0.003,0-0.005,0c-0.004,0-0.009,0.001-0.013,0.001c-0.002,0-0.005,0-0.007,0c-0.004,0-0.008,0.001-0.012,0.001
		c-0.002,0-0.004,0-0.006,0c-0.005,0-0.009,0.001-0.013,0.001c-0.002,0-0.004,0-0.006,0c-0.005,0-0.011,0.001-0.016,0.001
		c-0.001,0-0.002,0-0.003,0c-0.013,0.001-0.026,0.002-0.039,0.003c-0.001,0-0.001,0-0.002,0c-0.005,0-0.012,0.001-0.017,0.001
		c-0.002,0-0.003,0-0.004,0c-0.005,0-0.01,0.001-0.015,0.001c-0.002,0-0.003,0-0.005,0c-0.005,0-0.009,0.001-0.014,0.001
		c-0.002,0-0.004,0-0.006,0c-0.005,0-0.009,0.001-0.014,0.001c-0.001,0-0.003,0-0.004,0c-0.019,0.001-0.038,0.003-0.057,0.004
		c-0.001,0-0.002,0-0.003,0c-0.005,0-0.01,0.001-0.015,0.001c-0.002,0-0.004,0-0.005,0c-0.005,0-0.009,0.001-0.014,0.001
		c-0.002,0-0.004,0-0.006,0c-0.005,0-0.008,0.001-0.013,0.001c-0.002,0-0.004,0-0.005,0c-0.005,0-0.009,0.001-0.014,0.001
		c-0.001,0-0.003,0-0.005,0c-0.013,0.001-0.025,0.002-0.038,0.003c-0.001,0-0.002,0-0.003,0c-0.005,0-0.011,0.001-0.016,0.001
		c-0.002,0-0.003,0-0.005,0c-0.005,0-0.009,0.001-0.014,0.001c-0.002,0-0.004,0-0.006,0c-0.005,0-0.009,0.001-0.014,0.001
		c-0.002,0-0.004,0-0.005,0c-0.004,0-0.01,0.001-0.014,0.001c-0.002,0-0.003,0-0.005,0c-0.005,0-0.011,0.001-0.016,0.001
		c-0.001,0-0.002,0-0.002,0c-0.007,0.001-0.013,0.001-0.019,0.002h0c-0.007,0.001-0.012,0.001-0.018,0.002c-0.001,0-0.003,0-0.004,0
		c-0.005,0-0.01,0.001-0.015,0.001c-0.002,0-0.003,0-0.005,0c-0.005,0-0.009,0.001-0.014,0.001c-0.002,0-0.003,0-0.005,0
		c-0.005,0-0.01,0.001-0.015,0.001c-0.001,0-0.003,0-0.004,0c-0.005,0-0.012,0.001-0.017,0.001c-0.001,0-0.001,0-0.002,0
		c-0.019,0.002-0.038,0.003-0.057,0.005c-0.001,0-0.003,0-0.004,0c-0.005,0-0.01,0.001-0.015,0.001c-0.001,0-0.002,0-0.003,0
		c-0.005,0-0.011,0.001-0.016,0.001c-0.001,0-0.002,0-0.003,0c-0.005,0-0.011,0.001-0.016,0.002c-0.001,0-0.002,0-0.003,0
		c-0.02,0.002-0.038,0.004-0.058,0.005c-0.001,0-0.001,0-0.002,0c-0.005,0-0.012,0.001-0.017,0.002c-0.002,0-0.003,0-0.005,0
		c-0.005,0-0.009,0.001-0.014,0.001c-0.002,0-0.004,0-0.006,0.001c-0.005,0-0.008,0.001-0.013,0.001c-0.002,0-0.003,0-0.005,0
		c-0.005,0-0.011,0.001-0.016,0.002c-0.001,0-0.002,0-0.003,0c-0.013,0.001-0.025,0.003-0.038,0.004c-0.001,0-0.001,0-0.002,0
		c-0.006,0.001-0.012,0.001-0.018,0.002c-0.001,0-0.002,0-0.003,0c-0.005,0-0.011,0.001-0.016,0.002c-0.001,0-0.003,0-0.004,0
		c-0.005,0-0.009,0.001-0.014,0.001c-0.002,0-0.003,0-0.005,0.001c-0.005,0-0.009,0.001-0.014,0.001c-0.002,0-0.003,0-0.005,0
		c-0.02,0.002-0.037,0.004-0.057,0.006c-0.001,0-0.002,0-0.002,0c-0.005,0-0.012,0.001-0.017,0.002c-0.001,0-0.002,0-0.003,0
		c-0.005,0-0.011,0.001-0.016,0.002c-0.001,0-0.002,0-0.003,0c-0.005,0.001-0.012,0.001-0.017,0.002c-0.001,0-0.002,0-0.003,0
		c-0.026,0.003-0.051,0.006-0.077,0.009c0,0,0,0-0.001,0c-0.007,0.001-0.012,0.001-0.019,0.002c0,0-0.001,0-0.001,0
		c-0.006,0.001-0.012,0.001-0.017,0.002c-0.001,0-0.002,0-0.003,0c-0.006,0.001-0.012,0.001-0.017,0.002c-0.001,0-0.001,0-0.002,0
		c-0.02,0.002-0.038,0.004-0.057,0.007c-0.001,0-0.002,0-0.003,0c-0.006,0.001-0.011,0.001-0.017,0.002c-0.001,0-0.001,0-0.002,0
		c-0.006,0.001-0.011,0.001-0.017,0.002c-0.001,0-0.002,0-0.003,0c-0.005,0.001-0.012,0.001-0.017,0.002c-0.001,0-0.001,0-0.002,0
		c-0.026,0.003-0.051,0.006-0.077,0.009c0,0,0,0-0.001,0c-0.007,0.001-0.012,0.001-0.018,0.002c-0.001,0-0.001,0-0.002,0
		c-0.007,0.001-0.012,0.002-0.019,0.002l0,0c-0.032,0.004-0.064,0.008-0.097,0.012c0,0-0.001,0-0.001,0
		c-0.006,0.001-0.012,0.002-0.018,0.002c0,0-0.001,0-0.001,0C28.105,4.959,28.1,4.959,28.093,4.96c-0.001,0-0.001,0-0.001,0
		c-0.078,0.01-0.155,0.021-0.233,0.032c0,0,0,0,0,0c-1.759,0.247-3.466,0.682-5.101,1.284l2.764,7.507
		c1.855-0.683,3.785-1.029,5.736-1.029h11.32v-8h-11.32C31.252,4.754,31.245,4.754,31.239,4.754z"/>
	<rect x="6" y="69.09" fill="#E6E7E8" width="8" height="20"/>
	<rect x="49.51" y="148.428" fill="#E6E7E8" width="20" height="8"/>
	<path fill="#E6E7E8" d="M148.936,23.966l7.49-2.811c-0.72-1.919-1.672-3.728-2.821-5.394l0,0c-0.015-0.021-0.029-0.042-0.044-0.063
		c0-0.001,0,0,0-0.001c-0.004-0.005-0.007-0.01-0.011-0.016l0,0c-0.003-0.005-0.007-0.01-0.01-0.015
		c0-0.001-0.001-0.001-0.001-0.002c-0.003-0.005-0.007-0.01-0.01-0.015l-0.001-0.001c-0.003-0.005-0.006-0.009-0.01-0.014
		c0-0.001-0.001-0.002-0.002-0.002c-0.003-0.005-0.007-0.01-0.01-0.015c0-0.001,0,0,0-0.001c-0.004-0.005-0.007-0.01-0.011-0.015
		l0-0.001c-0.067-0.096-0.134-0.19-0.203-0.285c0-0.001,0-0.001-0.001-0.001c-0.004-0.005-0.007-0.01-0.01-0.015l-0.001-0.001
		c-0.003-0.005-0.007-0.01-0.01-0.014c0-0.001-0.001-0.002-0.002-0.003c-0.003-0.004-0.007-0.009-0.01-0.013
		c0-0.001-0.001-0.002-0.002-0.002c-0.003-0.004-0.006-0.008-0.009-0.013c-0.001-0.001-0.002-0.003-0.003-0.004
		c-0.003-0.004-0.006-0.008-0.008-0.012c-0.001-0.001-0.001-0.002-0.002-0.003c-0.003-0.004-0.006-0.008-0.009-0.012
		c-0.001-0.001-0.001-0.002-0.002-0.003c-0.003-0.004-0.006-0.009-0.01-0.013c0-0.001-0.001-0.001-0.001-0.002
		c-0.003-0.004-0.006-0.008-0.009-0.013c-0.001-0.002-0.002-0.003-0.003-0.005c-0.003-0.004-0.005-0.008-0.008-0.011
		c-0.001-0.002-0.002-0.003-0.003-0.005c-0.002-0.003-0.005-0.007-0.008-0.01c-0.001-0.002-0.003-0.004-0.004-0.006
		c-0.003-0.004-0.005-0.007-0.008-0.01c-0.001-0.001-0.003-0.004-0.004-0.005c-0.002-0.003-0.005-0.006-0.007-0.009
		c-0.002-0.003-0.003-0.004-0.005-0.007c-0.002-0.003-0.004-0.006-0.007-0.009c-0.001-0.002-0.003-0.004-0.004-0.006
		c-0.002-0.003-0.005-0.007-0.007-0.01c-0.001-0.002-0.003-0.003-0.004-0.005c-0.003-0.004-0.005-0.007-0.008-0.011
		c-0.001-0.002-0.002-0.003-0.003-0.004c-0.003-0.004-0.005-0.007-0.008-0.01c-0.001-0.002-0.003-0.004-0.004-0.006
		c-0.003-0.004-0.005-0.007-0.008-0.01c-0.001-0.002-0.002-0.003-0.004-0.005c-0.003-0.004-0.005-0.007-0.008-0.01
		c-0.001-0.001-0.003-0.004-0.004-0.005c-0.003-0.004-0.005-0.007-0.008-0.011c-0.001-0.001-0.003-0.004-0.004-0.005
		c-0.002-0.003-0.005-0.006-0.007-0.01c-0.002-0.003-0.003-0.003-0.004-0.006c-0.002-0.003-0.005-0.007-0.008-0.01
		c-0.001-0.002-0.002-0.003-0.004-0.005c-0.003-0.004-0.005-0.007-0.008-0.011c-0.001-0.002-0.002-0.002-0.003-0.004
		c-0.003-0.004-0.006-0.008-0.008-0.011c-0.001-0.001-0.002-0.003-0.003-0.004c-0.002-0.003-0.005-0.007-0.008-0.01
		c-0.001-0.002-0.003-0.004-0.004-0.005c-0.003-0.004-0.005-0.007-0.008-0.011c-0.001-0.001-0.002-0.003-0.003-0.004
		c-0.003-0.004-0.006-0.008-0.009-0.012c-0.001-0.001-0.002-0.003-0.003-0.004c-0.003-0.004-0.006-0.008-0.009-0.012
		c0-0.001-0.002-0.003-0.002-0.003c-0.003-0.004-0.005-0.006-0.007-0.01c-0.001-0.002-0.003-0.004-0.005-0.006
		c-0.004-0.005-0.007-0.01-0.011-0.014c0-0.001,0,0,0,0c-0.012-0.016-0.023-0.031-0.035-0.046c0-0.001-0.001-0.001-0.002-0.002
		c-0.003-0.005-0.007-0.009-0.01-0.013c-0.001-0.001-0.001-0.001-0.002-0.002c-0.003-0.005-0.006-0.008-0.01-0.013
		c-0.001-0.002-0.002-0.003-0.003-0.005c-0.003-0.004-0.005-0.007-0.008-0.011c-0.002-0.003-0.004-0.005-0.006-0.007
		c-0.002-0.003-0.004-0.005-0.006-0.008c-0.003-0.004-0.005-0.006-0.008-0.01c-0.001-0.002-0.003-0.003-0.004-0.005
		c-0.002-0.003-0.004-0.006-0.007-0.009c-0.002-0.002-0.003-0.005-0.005-0.007c-0.002-0.003-0.005-0.006-0.007-0.009
		c-0.002-0.002-0.003-0.004-0.005-0.006c-0.002-0.003-0.005-0.006-0.007-0.009c-0.001-0.002-0.003-0.004-0.004-0.006
		c-0.002-0.003-0.005-0.007-0.008-0.01c-0.001-0.002-0.003-0.003-0.004-0.005c-0.002-0.003-0.005-0.006-0.007-0.009
		c-0.001-0.002-0.003-0.004-0.005-0.006c-0.002-0.003-0.005-0.006-0.007-0.009c-0.001-0.002-0.003-0.003-0.004-0.005
		c-0.002-0.003-0.005-0.007-0.008-0.01c-0.001-0.002-0.003-0.003-0.004-0.005c-0.002-0.003-0.006-0.007-0.008-0.01
		c-0.001-0.002-0.002-0.003-0.004-0.005c-0.002-0.003-0.005-0.007-0.007-0.01c-0.002-0.002-0.003-0.004-0.005-0.006
		c-0.002-0.003-0.005-0.006-0.007-0.01c-0.002-0.002-0.003-0.003-0.004-0.005c-0.002-0.003-0.005-0.007-0.008-0.01
		c-0.001-0.002-0.003-0.003-0.004-0.005c-0.002-0.003-0.005-0.007-0.008-0.01c-0.002-0.002-0.003-0.004-0.004-0.006
		c-0.002-0.003-0.004-0.006-0.007-0.009c-0.002-0.002-0.003-0.004-0.005-0.007c-0.002-0.003-0.005-0.006-0.007-0.009
		c-0.002-0.002-0.003-0.004-0.005-0.006c-0.002-0.003-0.005-0.006-0.007-0.009c-0.001-0.002-0.003-0.004-0.004-0.005
		c-0.003-0.004-0.005-0.007-0.008-0.01c-0.001-0.002-0.002-0.003-0.004-0.005c-0.003-0.004-0.005-0.006-0.008-0.01
		c-0.002-0.002-0.003-0.004-0.005-0.006c-0.002-0.003-0.005-0.007-0.008-0.01c-0.001-0.002-0.002-0.003-0.004-0.005
		c-0.003-0.004-0.005-0.007-0.008-0.01c-0.001-0.002-0.003-0.003-0.004-0.005c-0.002-0.003-0.006-0.007-0.008-0.01
		c-0.001-0.002-0.002-0.003-0.003-0.004c-0.002-0.003-0.005-0.007-0.008-0.01c-0.002-0.002-0.003-0.004-0.005-0.006
		c-0.002-0.003-0.005-0.007-0.008-0.01c-0.001-0.002-0.002-0.003-0.003-0.004c-0.002-0.003-0.006-0.008-0.008-0.011
		c-0.001-0.001-0.002-0.003-0.003-0.004c-0.003-0.004-0.006-0.007-0.009-0.011c-0.001-0.001-0.002-0.002-0.003-0.004
		c-0.002-0.003-0.006-0.007-0.008-0.01c-0.002-0.002-0.003-0.004-0.005-0.006c-0.002-0.003-0.005-0.006-0.007-0.009
		c-0.002-0.002-0.003-0.003-0.004-0.005c-0.003-0.004-0.005-0.006-0.008-0.01c-0.001-0.001-0.002-0.003-0.003-0.004
		c-0.003-0.004-0.006-0.008-0.009-0.011c0-0.001-0.001-0.001-0.002-0.002c-0.003-0.004-0.006-0.008-0.01-0.012
		c-0.001-0.002-0.003-0.003-0.004-0.005c-0.003-0.004-0.005-0.007-0.008-0.01l0,0c-0.043-0.054-0.086-0.107-0.129-0.16
		c-0.001-0.001-0.001-0.001-0.002-0.002c-0.003-0.004-0.007-0.009-0.01-0.013c0-0.001-0.001-0.001-0.001-0.002
		c-0.003-0.004-0.007-0.008-0.01-0.013c-0.001-0.001-0.001-0.001-0.002-0.002c-0.004-0.005-0.007-0.008-0.011-0.013
		c0,0-0.001-0.001-0.001-0.001c-0.003-0.004-0.007-0.008-0.01-0.012c-0.001-0.001-0.002-0.002-0.002-0.003
		c-0.003-0.004-0.007-0.008-0.01-0.012c0-0.001-0.001-0.001-0.002-0.002c-0.004-0.004-0.006-0.008-0.01-0.012
		c-0.001-0.001-0.002-0.002-0.003-0.003c-0.003-0.004-0.007-0.009-0.01-0.012c-0.001-0.001-0.001-0.001-0.002-0.002
		c-0.004-0.004-0.006-0.008-0.01-0.012c-0.001-0.001-0.002-0.003-0.003-0.004c-0.003-0.004-0.007-0.008-0.01-0.012
		c0-0.001-0.001-0.002-0.002-0.002c-0.004-0.004-0.007-0.008-0.01-0.012c0-0.001-0.001-0.002-0.002-0.002
		c-0.003-0.004-0.007-0.009-0.01-0.013c-0.001-0.001-0.001-0.001-0.002-0.002c-0.004-0.004-0.007-0.008-0.01-0.012
		c-0.001-0.001-0.002-0.002-0.003-0.003c-0.003-0.004-0.007-0.008-0.01-0.012c0-0.001-0.001-0.002-0.002-0.002
		c-0.003-0.004-0.007-0.009-0.01-0.012c-0.001-0.001-0.002-0.002-0.002-0.003c-0.003-0.004-0.007-0.008-0.01-0.012
		c-0.001-0.001-0.001-0.002-0.002-0.003c-0.003-0.004-0.007-0.008-0.01-0.012c-0.001-0.001-0.002-0.003-0.003-0.004
		c-0.003-0.004-0.006-0.007-0.009-0.011c-0.001-0.001-0.002-0.002-0.003-0.003c-0.003-0.004-0.007-0.008-0.01-0.012
		c-0.001-0.001-0.002-0.002-0.003-0.003c-0.004-0.004-0.006-0.008-0.01-0.012c0-0.001-0.001-0.001-0.002-0.002
		c-0.004-0.004-0.007-0.008-0.01-0.012c-0.001-0.001-0.002-0.002-0.002-0.003c-0.004-0.004-0.007-0.008-0.01-0.012
		c0-0.001-0.001-0.001-0.001-0.002c-0.004-0.004-0.007-0.009-0.011-0.013c0,0-0.001-0.001-0.001-0.001
		c-2.02-2.394-4.48-4.411-7.259-5.93l-0.001,0c-0.006-0.003-0.011-0.006-0.016-0.009c0,0,0,0,0,0
		c-0.005-0.003-0.01-0.006-0.015-0.008c-0.001,0-0.001-0.001-0.002-0.001c-0.005-0.003-0.01-0.006-0.015-0.008
		c0,0-0.001-0.001-0.002-0.001c-0.005-0.003-0.01-0.005-0.015-0.008c-0.001,0-0.001-0.001-0.002-0.001
		c-0.005-0.003-0.01-0.005-0.015-0.008c-0.001,0-0.001-0.001-0.002-0.001c-0.005-0.003-0.01-0.005-0.015-0.008
		c0,0-0.002-0.001-0.002-0.001c-0.006-0.003-0.01-0.005-0.016-0.008c0,0-0.001,0-0.001-0.001c-0.005-0.003-0.01-0.005-0.015-0.008
		c-0.001-0.001-0.002-0.001-0.003-0.002c-0.004-0.002-0.01-0.005-0.014-0.008c-0.001-0.001-0.002-0.001-0.003-0.002
		c-0.004-0.002-0.008-0.005-0.013-0.007c-0.001-0.001-0.004-0.002-0.005-0.003c-0.004-0.002-0.008-0.004-0.013-0.007
		c-0.001-0.001-0.003-0.001-0.004-0.002c-0.004-0.002-0.008-0.004-0.013-0.007c-0.001-0.001-0.003-0.002-0.005-0.002
		c-0.004-0.002-0.009-0.005-0.013-0.007c-0.001-0.001-0.002-0.001-0.003-0.002c-0.004-0.002-0.009-0.005-0.013-0.007
		c-0.001-0.001-0.003-0.001-0.004-0.002c-0.005-0.003-0.009-0.005-0.014-0.007c-0.001-0.001-0.002-0.001-0.003-0.002
		c-0.004-0.002-0.009-0.005-0.013-0.007c-0.001-0.001-0.003-0.001-0.004-0.002c-0.005-0.003-0.008-0.004-0.013-0.007
		c-0.001-0.001-0.002-0.001-0.003-0.002c-0.004-0.002-0.009-0.005-0.013-0.007c-0.002-0.001-0.003-0.002-0.005-0.003
		c-0.004-0.002-0.009-0.005-0.013-0.007c-0.001,0-0.002-0.001-0.002-0.001c-0.005-0.003-0.01-0.005-0.014-0.008
		c-0.001-0.001-0.002-0.001-0.003-0.001c-0.005-0.003-0.01-0.005-0.015-0.008c0,0,0,0-0.001,0c-0.006-0.003-0.01-0.005-0.016-0.008
		c0,0-0.001,0-0.001-0.001c-0.091-0.048-0.18-0.094-0.271-0.14c0,0-0.001,0-0.001,0c-0.011-0.005-0.022-0.011-0.032-0.016
		c-0.001-0.001-0.001-0.001-0.002-0.001c-0.005-0.003-0.009-0.005-0.014-0.007c-0.001,0-0.002-0.001-0.003-0.001
		c-0.004-0.002-0.008-0.004-0.013-0.006c-0.002-0.001-0.004-0.002-0.005-0.003c-0.004-0.002-0.009-0.004-0.013-0.007
		c-0.001-0.001-0.002-0.001-0.003-0.002c-0.005-0.003-0.009-0.004-0.014-0.007c-0.001-0.001-0.003-0.001-0.004-0.002
		c-0.004-0.002-0.009-0.004-0.013-0.006c-0.001-0.001-0.003-0.001-0.004-0.002c-0.004-0.002-0.008-0.004-0.013-0.006
		c-0.001-0.001-0.004-0.002-0.005-0.003c-0.004-0.002-0.008-0.004-0.012-0.006c-0.001-0.001-0.003-0.001-0.005-0.002
		c-0.004-0.002-0.009-0.004-0.013-0.007c-0.001-0.001-0.003-0.001-0.004-0.002c-0.004-0.002-0.008-0.004-0.012-0.006
		c-0.001-0.001-0.004-0.002-0.005-0.003c-0.004-0.002-0.008-0.004-0.012-0.006c-0.002-0.001-0.004-0.002-0.006-0.003
		c-0.004-0.002-0.007-0.004-0.012-0.006c-0.002-0.001-0.003-0.002-0.005-0.003c-0.004-0.002-0.008-0.004-0.012-0.006
		c-0.002-0.001-0.004-0.002-0.006-0.003c-0.004-0.002-0.007-0.004-0.012-0.006c-0.001-0.001-0.004-0.002-0.005-0.003
		c-0.004-0.002-0.008-0.004-0.012-0.006c-0.002-0.001-0.004-0.002-0.006-0.003c-0.004-0.002-0.008-0.004-0.012-0.006
		c-0.001-0.001-0.003-0.002-0.005-0.002c-0.004-0.002-0.009-0.004-0.013-0.006c-0.002-0.001-0.003-0.002-0.005-0.002
		c-0.004-0.002-0.008-0.004-0.012-0.006c-0.002-0.001-0.004-0.002-0.007-0.003c-0.004-0.002-0.007-0.003-0.01-0.005
		c-0.002-0.001-0.005-0.003-0.007-0.004c-0.004-0.002-0.007-0.003-0.01-0.005c-0.002-0.001-0.004-0.002-0.006-0.003
		c-0.004-0.002-0.008-0.004-0.012-0.006c-0.002-0.001-0.004-0.002-0.005-0.003c-0.004-0.002-0.008-0.004-0.012-0.006
		c-0.002-0.001-0.004-0.002-0.006-0.003c-0.004-0.002-0.008-0.004-0.011-0.005c-0.002-0.001-0.004-0.002-0.006-0.003
		c-0.004-0.002-0.008-0.004-0.012-0.006c-0.001-0.001-0.002-0.001-0.003-0.002c-0.005-0.002-0.009-0.004-0.014-0.007
		c-0.001,0-0.001-0.001-0.002-0.001c-0.005-0.003-0.01-0.005-0.015-0.007c-0.001-0.001-0.003-0.001-0.004-0.002
		c-0.004-0.002-0.009-0.004-0.013-0.006c-0.002-0.001-0.003-0.002-0.005-0.002c-0.004-0.002-0.008-0.004-0.013-0.006
		c0,0-0.001,0-0.001-0.001c-0.032-0.016-0.066-0.032-0.098-0.047c-0.001-0.001-0.003-0.002-0.005-0.002
		c-0.003-0.001-0.005-0.003-0.008-0.004c-0.003-0.002-0.006-0.003-0.01-0.005c-0.002-0.001-0.005-0.003-0.007-0.004
		c-0.003-0.002-0.007-0.003-0.01-0.005c-0.003-0.001-0.007-0.003-0.01-0.005c-0.002-0.001-0.005-0.002-0.007-0.003
		c-0.004-0.002-0.007-0.003-0.01-0.005c-0.002-0.001-0.005-0.003-0.007-0.004c-0.003-0.001-0.006-0.003-0.009-0.004
		c-0.003-0.001-0.006-0.003-0.009-0.004c-0.003-0.001-0.007-0.003-0.009-0.004c-0.003-0.001-0.006-0.003-0.008-0.004
		c-0.003-0.001-0.007-0.003-0.009-0.004c-0.003-0.001-0.005-0.002-0.008-0.004c-0.003-0.001-0.006-0.003-0.009-0.004
		c-0.003-0.001-0.006-0.003-0.009-0.004c-0.003-0.001-0.005-0.002-0.008-0.004c-0.003-0.002-0.006-0.003-0.01-0.005
		c-0.003-0.001-0.005-0.002-0.008-0.004c-0.003-0.001-0.007-0.003-0.01-0.004s-0.006-0.003-0.008-0.004
		c-0.003-0.001-0.006-0.003-0.009-0.004c-0.004-0.002-0.006-0.003-0.009-0.004c-0.003-0.001-0.006-0.003-0.009-0.004
		c-0.002-0.001-0.006-0.003-0.008-0.004c-0.003-0.002-0.006-0.003-0.009-0.004c-0.003-0.001-0.006-0.003-0.008-0.004
		c-0.003-0.001-0.006-0.003-0.009-0.004c-0.003-0.001-0.006-0.003-0.009-0.004c-0.003-0.001-0.005-0.002-0.008-0.004
		c-0.003-0.001-0.007-0.003-0.01-0.005c-0.003-0.001-0.005-0.003-0.008-0.004c-0.003-0.001-0.005-0.003-0.008-0.004
		c-0.003-0.002-0.007-0.003-0.01-0.005c-0.003-0.001-0.005-0.002-0.008-0.004c-0.003-0.002-0.007-0.003-0.01-0.005
		c-0.003-0.001-0.005-0.002-0.008-0.004c-0.003-0.002-0.006-0.003-0.01-0.004c-0.003-0.001-0.006-0.003-0.009-0.004
		c-0.003-0.001-0.006-0.003-0.009-0.004c-0.002-0.001-0.006-0.003-0.008-0.004c-0.003-0.002-0.007-0.003-0.01-0.005
		c-0.002-0.001-0.006-0.003-0.008-0.004c-0.003-0.001-0.007-0.003-0.01-0.004c-0.003-0.001-0.005-0.002-0.008-0.004
		c-0.003-0.001-0.006-0.003-0.009-0.004c-0.003-0.001-0.006-0.003-0.009-0.004c-0.003-0.001-0.006-0.003-0.009-0.004
		c-0.003-0.001-0.005-0.002-0.008-0.004c-0.003-0.002-0.007-0.003-0.01-0.005c-0.003-0.001-0.005-0.002-0.008-0.003
		c-0.003-0.002-0.007-0.003-0.01-0.005c-0.002-0.001-0.005-0.002-0.007-0.003c-0.003-0.001-0.007-0.003-0.01-0.004
		c-0.003-0.001-0.005-0.002-0.008-0.004c-0.003-0.002-0.007-0.003-0.01-0.004c-0.002-0.001-0.005-0.002-0.007-0.003
		c-0.003-0.002-0.007-0.003-0.01-0.005c-0.002-0.001-0.006-0.003-0.008-0.003c-0.003-0.001-0.006-0.003-0.009-0.004
		c-0.004-0.002-0.006-0.003-0.009-0.004c-0.002-0.001-0.005-0.002-0.007-0.003c-0.003-0.001-0.007-0.003-0.01-0.004l-3.272,7.301
		C143.998,16.175,147.336,19.704,148.936,23.966z"/>
	<path fill="#E6E7E8" d="M133.124,12.762l0.241-7.996c-0.032-0.001-0.063-0.002-0.095-0.003c-0.003,0-0.007,0-0.01,0
		c-0.004,0-0.007,0-0.011,0c-0.004,0-0.009,0-0.014,0c-0.002,0-0.004,0-0.006,0c-0.155-0.004-0.31-0.006-0.466-0.007
		c-0.001,0-0.002,0-0.003,0c-0.005,0-0.012,0-0.017,0c-0.002,0-0.004,0-0.005,0c-0.006,0-0.011,0-0.017,0c-0.012,0-0.024,0-0.036,0
		c-0.002,0-0.004,0-0.006,0c-0.004,0-0.008,0-0.012,0c-0.004,0-0.008,0-0.012,0c-0.004,0-0.006,0-0.011,0c-0.004,0-0.008,0-0.012,0
		c-0.003,0-0.007,0-0.01,0c-0.005,0-0.01,0-0.014,0c-0.003,0-0.006,0-0.008,0c-0.008,0-0.015,0-0.023,0h-20v8h20
		C132.761,12.754,132.943,12.757,133.124,12.762z"/>
	<rect x="6" y="39.09" fill="#E6E7E8" width="8" height="20"/>
	<rect x="52.578" y="4.754" fill="#E6E7E8" width="20" height="8"/>
	<rect x="82.578" y="4.754" fill="#E6E7E8" width="20" height="8"/>
	<rect x="150" y="120.966" fill="#E6E7E8" width="8" height="20"/>
	<polygon fill="#E6E7E8" points="150,182.908 150,188.268 144.788,183.753 131.694,198.871 137.741,204.108 150,189.954 
		150,200.966 158,200.966 158,182.908 158,180.966 150,180.966 	"/>
	<rect x="150" y="90.966" fill="#E6E7E8" width="8" height="20"/>
	<rect x="150" y="30.966" fill="#E6E7E8" width="8" height="20"/>
	<rect x="150" y="60.966" fill="#E6E7E8" width="8" height="20"/>
	<path fill="#E6E7E8" d="M150,163.553l-7.148-7.17l-5.665,5.648l13.184,13.224c0.003,0.003,0.005,0.005,0.008,0.008l0.02,0.02
		c0.004,0.004,0.008,0.008,0.011,0.011l0.015,0.015l0,0l0.021,0.021c0.543,0.544,0.862,0.865,0.862,0.865l5.245-5.229H158v-2.467
		v-17.533h-8V163.553z"/>
	<rect x="79.51" y="148.431" fill="#E6E7E8" width="20" height="8"/>
	<rect x="140.263" y="205.229" fill="#E6E7E8" width="17.737" height="8"/>
	<rect x="109.51" y="148.433" fill="#E6E7E8" width="20" height="8"/>
	<path fill="#E6E7E8" d="M130.263,205.229h-4.076l-6.929,8h10.584c0.269,0,0.422,0,0.422,0v-0.487l0.931-1.074l-0.931-0.806V205.229
		z"/>
	<path fill="#E6E7E8" d="M88.34,101.863c0-3.86-2.653-6.434-6.513-6.434c-4.021,0-6.916,2.976-6.916,6.514s3.136,5.95,6.514,5.95
		C85.607,107.893,88.34,105.401,88.34,101.863z"/>
	<path fill="#E6E7E8" d="M84.079,54.016c-6.272,0-13.107,1.207-16.243,2.734c-0.322,4.342-0.563,8.685-0.885,12.786
		c2.573,0.402,5.468,0.724,8.282,0.965l1.931-6.594c0.08-0.482,0.241-0.644,0.562-0.885c0.965-0.724,2.252-0.965,3.538-0.965
		c2.654,0,5.146,2.091,5.146,5.709c0,5.629-3.618,8.604-11.981,14.394c0.08,3.056,1.93,7.317,3.136,9.087
		c3.78-0.242,6.836-0.965,8.443-1.608c-0.16-2.091-0.241-3.699-0.241-4.825c0-0.563,0.563-1.126,1.287-1.528
		c8.765-4.503,14.072-8.926,14.072-16.726C101.126,58.439,94.13,54.016,84.079,54.016z"/>
</g>
</svg>
