<?xml version="1.0" encoding="utf-8"?>
<!-- Generator: Adobe Illustrator 17.1.0, SVG Export Plug-In . SVG Version: 6.00 Build 0)  -->
<!DOCTYPE svg PUBLIC "-//W3C//DTD SVG 1.1//EN" "http://www.w3.org/Graphics/SVG/1.1/DTD/svg11.dtd">
<svg version="1.1" id="Layer_8" xmlns="http://www.w3.org/2000/svg" xmlns:xlink="http://www.w3.org/1999/xlink" x="0px" y="0px"
	 viewBox="0 0 168 223.229" enable-background="new 0 0 168 223.229" xml:space="preserve">
<g>
	<g>
		<path fill="#FFFFFF" d="M158,182.716l-26.422-26.502l-100.453-0.008c-13.94,0-25.284-11.342-25.284-25.284V29.503
			c0-13.62,11.579-25.128,25.284-25.128h101.427C146.586,4.375,158,15.647,158,29.503V182.716z M31.125,12.384
			c-9.365,0-17.276,7.84-17.276,17.12v101.419c0,9.526,7.75,17.276,17.276,17.276l103.777,0.008l15.09,15.135V29.503
			c0-9.279-7.985-17.12-17.44-17.12H31.125z"/>
		<path fill="#FFFFFF" d="M132.551,8.379H31.125c-11.614,0-21.28,9.667-21.28,21.124v101.419c0,11.778,9.667,21.28,21.28,21.28
			h81.39v0.008h20.725l20.756,20.819v-20.827v-21.28v-20.029v-81.39C153.995,18.045,144.329,8.379,132.551,8.379z M18.073,77.763
			l1.372-3.762c1.816,0.661,3.736,0.997,5.709,0.997c7.952,0,14.859-5.647,16.424-13.428l3.926,0.79
			c-0.716,3.565-2.343,6.766-4.6,9.388c1.437,1.296,2.344,3.166,2.344,5.254c0,3.916-3.175,7.091-7.091,7.091
			c-3.374,0-6.192-2.358-6.909-5.515c-1.33,0.269-2.697,0.425-4.094,0.425C22.712,79.003,20.331,78.585,18.073,77.763z
			 M36.127,129.162c-6.06,0-10.973-4.913-10.973-10.973s10.973-29.667,10.973-29.667S47.1,112.129,47.1,118.189
			S42.187,129.162,36.127,129.162z M59.71,111.32c0-12.382,10.037-22.419,22.419-22.419s22.419,10.037,22.419,22.419H59.71z
			 M138.41,79.003c-1.305,0-2.585-0.131-3.833-0.367c-0.739,3.127-3.541,5.457-6.894,5.457c-3.916,0-7.091-3.175-7.091-7.091
			c0-2.012,0.844-3.821,2.19-5.11c-2.322-2.648-3.991-5.902-4.722-9.532l3.926-0.79c1.566,7.782,8.472,13.428,16.423,13.428
			c1.973,0,3.893-0.336,5.709-0.997l1.373,3.762C143.233,78.585,140.852,79.003,138.41,79.003z"/>
	</g>
	<g>
		<g opacity="0.35">
			<g>
				<path fill="#FFFFFF" d="M107.023,153.618l20.756,20.819V153.61"/>
				<polygon fill="#FFFFFF" points="131.785,184.124 104.19,156.445 109.86,150.79 123.777,164.748 123.777,153.61 131.785,153.61 
									"/>
			</g>
			<g>
				<polygon fill="#FFFFFF" points="127.779,209.224 101.77,209.224 127.779,179.191 				"/>
				<path fill="#FFFFFF" d="M131.785,213.229H93.002l38.783-44.777V213.229z M110.536,205.22h13.24v-15.289L110.536,205.22z"/>
			</g>
		</g>
		<g>
			<polygon fill="#FFFFFF" points="153.995,209.224 127.985,209.224 153.995,179.191 			"/>
			<path fill="#FFFFFF" d="M158,213.229h-38.783L158,168.451V213.229z M136.751,205.22h13.24v-15.289L136.751,205.22z"/>
		</g>
	</g>
</g>
</svg>
