<?xml version="1.0" encoding="utf-8"?>
<!-- Generator: Adobe Illustrator 17.1.0, SVG Export Plug-In . SVG Version: 6.00 Build 0)  -->
<!DOCTYPE svg PUBLIC "-//W3C//DTD SVG 1.1//EN" "http://www.w3.org/Graphics/SVG/1.1/DTD/svg11.dtd">
<svg version="1.1" id="Layer_11" xmlns="http://www.w3.org/2000/svg" xmlns:xlink="http://www.w3.org/1999/xlink" x="0px" y="0px"
	 viewBox="0 0 168 223.229" enable-background="new 0 0 168 223.229" xml:space="preserve">
<g>
	<polygon opacity="0.3" fill="#FFFFFF" points="127.765,153.582 127.765,153.581 125.877,153.582 123.759,153.582 123.759,153.582 
		112.653,153.587 109.835,150.761 106.999,153.589 106.998,153.589 106.999,153.589 104.163,156.418 124.506,176.822 
		92.973,213.229 131.772,213.229 131.772,184.109 131.772,168.433 131.772,153.582 	"/>
	<g>
		<path fill="#FFFFFF" d="M158,184.109l-26.436-26.514l-100.504-0.008c-13.949,0-25.297-11.35-25.297-25.297V30.821
			c0-13.627,11.584-25.141,25.297-25.141h101.478C146.578,5.68,158,16.959,158,30.821V184.109z M31.061,13.693
			c-9.37,0-17.285,7.844-17.285,17.128v101.47c0,9.53,7.754,17.285,17.285,17.285l103.829,0.008l15.098,15.145V30.821
			c0-9.284-7.991-17.128-17.449-17.128H31.061z"/>
		<path fill="#FFFFFF" d="M132.539,9.686H31.061c-11.62,0-21.291,9.671-21.291,21.134v101.47c0,11.784,9.671,21.291,21.291,21.291
			h81.431v0.008h20.735l20.767,20.829v-20.837V132.29v-20.039V30.82C153.994,19.357,144.323,9.686,132.539,9.686z M36.096,85.439
			c-3.918,0-7.094-3.176-7.094-7.094c0-3.918,3.176-7.094,7.094-7.094c3.918,0,7.094,3.176,7.094,7.094
			C43.191,82.262,40.015,85.439,36.096,85.439z M82.092,120.136c-16.2,0-29.332-13.132-29.332-29.332h58.664
			C111.424,107.003,98.291,120.136,82.092,120.136z M127.668,85.439c-3.918,0-7.094-3.176-7.094-7.094
			c0-3.918,3.176-7.094,7.094-7.094s7.094,3.176,7.094,7.094C134.762,82.262,131.586,85.439,127.668,85.439z"/>
	</g>
	<g>
		<polygon fill="#FFFFFF" points="153.994,209.224 127.971,209.224 153.994,179.175 		"/>
		<path fill="#FFFFFF" d="M158,213.229h-38.798L158,168.433V213.229z M136.74,205.216h13.247v-15.297L136.74,205.216z"/>
	</g>
	<g opacity="0.4">
		<defs>
			<path id="SVGID_1_" opacity="0.4" d="M111.424,90.804c0,16.2-13.132,29.332-29.332,29.332S52.76,107.003,52.76,90.804"/>
		</defs>
		<clipPath id="SVGID_2_">
			<use xlink:href="#SVGID_1_"  overflow="visible"/>
		</clipPath>
		<rect x="50.303" y="89.777" clip-path="url(#SVGID_2_)" fill="#FFFFFF" width="65.444" height="10.337"/>
	</g>
</g>
</svg>
