<?xml version="1.0" encoding="utf-8"?>
<!-- Generator: Adobe Illustrator 17.1.0, SVG Export Plug-In . SVG Version: 6.00 Build 0)  -->
<!DOCTYPE svg PUBLIC "-//W3C//DTD SVG 1.1//EN" "http://www.w3.org/Graphics/SVG/1.1/DTD/svg11.dtd">
<svg version="1.1" id="Layer_2" xmlns="http://www.w3.org/2000/svg" xmlns:xlink="http://www.w3.org/1999/xlink" x="0px" y="0px"
	 viewBox="0 0 168 223.229" enable-background="new 0 0 168 223.229" xml:space="preserve">
<g>
	<g opacity="0.3">
		<g>
			<path fill="#FFCC15" d="M107.077,153.68l20.734,20.797v-20.805"/>
			<polygon fill="#FFCC15" points="131.812,184.155 104.246,156.504 109.91,150.856 123.812,164.799 123.812,153.672 
				131.812,153.672 			"/>
		</g>
		<g>
			<polygon fill="#FFCC15" points="127.811,209.228 101.829,209.228 127.811,179.226 			"/>
			<path fill="#FFCC15" d="M131.812,213.229H93.07l38.742-44.73V213.229z M110.586,205.229h13.227v-15.273L110.586,205.229z"/>
		</g>
	</g>
	<g>
		<g>
			<path fill="#FFCC15" d="M132.577,8.754H31.257c-11.602,0-21.258,9.656-21.258,21.102v101.312
				c0,11.766,9.656,21.258,21.258,21.258h81.305v0.008h20.703l20.734,20.797v-20.805v-21.258v-20.008V29.856
				C153.999,18.411,144.343,8.754,132.577,8.754z"/>
			<path fill="#FFCC15" d="M158,182.908l-26.395-26.475l-100.348-0.008C17.332,156.426,6,145.096,6,131.168V29.856
				C6,16.25,17.566,4.754,31.258,4.754h101.32c14.02,0,25.422,11.26,25.422,25.102V182.908z M31.258,12.754
				C21.902,12.754,14,20.586,14,29.856v101.312c0,9.516,7.742,17.258,17.258,17.258l103.668,0.008L150,163.553V29.856
				c0-9.27-7.977-17.102-17.422-17.102H31.258z"/>
		</g>
		<g>
			<circle fill="#E9B81F" cx="36.284" cy="77.306" r="7.083"/>
		</g>
		<g>
			<polygon fill="#E9B81F" points="139.822,106.204 135.272,111.782 32.822,111.782 28.055,106.204 			"/>
			<polygon fill="#E9B81F" points="58.194,106.462 43.023,123.91 28.055,106.204 			"/>
			<polygon fill="#E9B81F" points="74.068,111.344 63.779,123.91 53.489,111.344 			"/>
			<polygon fill="#E9B81F" points="94.647,111.344 84.358,123.91 74.068,111.344 			"/>
			<polygon fill="#E9B81F" points="115.226,111.344 104.937,123.91 94.647,111.344 			"/>
			<polygon fill="#E9B81F" points="135.805,111.344 125.515,123.91 115.226,111.344 			"/>
		</g>
		<rect x="113.127" y="76.57" fill="#E9B81F" width="26.695" height="8.401"/>
		
			<rect x="122.274" y="60.951" transform="matrix(-0.52 -0.8542 0.8542 -0.52 129.2991 220.0342)" fill="#E9B81F" width="8.401" height="25.471"/>
	</g>
	<g>
		<polygon fill="#FFCC15" points="154,209.228 128.017,209.228 154,179.226 		"/>
		<path fill="#FFCC15" d="M158,213.229h-38.742L158,168.498V213.229z M136.773,205.229H150v-15.273L136.773,205.229z"/>
	</g>
</g>
</svg>
