<?xml version="1.0" encoding="utf-8"?>
<!-- Generator: Adobe Illustrator 17.1.0, SVG Export Plug-In . SVG Version: 6.00 Build 0)  -->
<!DOCTYPE svg PUBLIC "-//W3C//DTD SVG 1.1//EN" "http://www.w3.org/Graphics/SVG/1.1/DTD/svg11.dtd">
<svg version="1.1" xmlns="http://www.w3.org/2000/svg" xmlns:xlink="http://www.w3.org/1999/xlink" x="0px" y="0px"
	 viewBox="0 0 100 200" enable-background="new 0 0 100 200" xml:space="preserve">
<g id="Happy" display="none">
	<path display="inline" fill="#A1CC3B" d="M50,82c-17.645,0-32-14.355-32-32c0-17.645,14.355-32,32-32c17.645,0,32,14.355,32,32
		C82,67.645,67.645,82,50,82z M50,22c-15.439,0-28,12.561-28,28s12.561,28,28,28s28-12.561,28-28S65.439,22,50,22z"/>
	<path display="inline" fill="#A1CC3B" d="M33.581,56C35.834,62.92,42.328,67.925,50,67.925S64.166,62.92,66.419,56H33.581z"/>
	<g display="inline">
		<circle fill="#A1CC3B" cx="42.984" cy="41.5" r="3.438"/>
		<circle fill="#A1CC3B" cx="57.016" cy="41.5" r="3.438"/>
	</g>
	<path display="inline" fill="#FFFFFF" d="M50,182c-17.645,0-32-14.355-32-32c0-17.645,14.355-32,32-32c17.645,0,32,14.355,32,32
		C82,167.645,67.645,182,50,182z M50,122c-15.439,0-28,12.561-28,28s12.561,28,28,28s28-12.561,28-28S65.439,122,50,122z"/>
	<path display="inline" fill="#FFFFFF" d="M33.581,156c2.253,6.92,8.748,11.925,16.419,11.925S64.166,162.92,66.419,156H33.581z"/>
	<g display="inline">
		<circle fill="#FFFFFF" cx="42.984" cy="141.5" r="3.438"/>
		<circle fill="#FFFFFF" cx="57.016" cy="141.5" r="3.438"/>
	</g>
</g>
<g id="Bored" display="none">
	<path display="inline" fill="#A1CC3B" d="M50,82c-17.645,0-32-14.355-32-32c0-17.645,14.355-32,32-32c17.645,0,32,14.355,32,32
		C82,67.645,67.645,82,50,82z M50,22c-15.439,0-28,12.561-28,28s12.561,28,28,28s28-12.561,28-28S65.439,22,50,22z"/>
	<rect x="38" y="40" display="inline" fill="#A1CC3B" width="10" height="3"/>
	<rect x="52" y="40" display="inline" fill="#A1CC3B" width="10" height="3"/>
	<circle display="inline" fill="#A1CC3B" cx="50" cy="60" r="4.984"/>
	<g display="inline">
		<path fill="#A1CC3B" d="M80.361,24.792l0.394-1.866h7.111l-0.402,1.906l-5.51,4.979h4.601l-0.394,1.882h-7.569l0.378-1.786
			l5.583-5.116H80.361z"/>
	</g>
	<g display="inline">
		<path fill="#A1CC3B" d="M76.815,17.072l0.244-1.156h4.404l-0.249,1.181l-3.413,3.084h2.85l-0.244,1.166h-4.688l0.234-1.106
			l3.458-3.169H76.815z"/>
	</g>
	<g display="inline">
		<path fill="#A1CC3B" d="M82.017,11.788L82.184,11h3.003l-0.17,0.805l-2.327,2.102h1.943l-0.166,0.795H81.27l0.16-0.754l2.357-2.16
			H82.017z"/>
	</g>
	<path display="inline" fill="#FFFFFF" d="M50,182c-17.645,0-32-14.355-32-32c0-17.645,14.355-32,32-32c17.645,0,32,14.355,32,32
		C82,167.645,67.645,182,50,182z M50,122c-15.439,0-28,12.561-28,28s12.561,28,28,28s28-12.561,28-28S65.439,122,50,122z"/>
	<rect x="38" y="140" display="inline" fill="#FFFFFF" width="10" height="3"/>
	<rect x="52" y="140" display="inline" fill="#FFFFFF" width="10" height="3"/>
	<circle display="inline" fill="#FFFFFF" cx="50" cy="160" r="4.984"/>
	<g display="inline">
		<path fill="#FFFFFF" d="M80.361,124.792l0.394-1.866h7.111l-0.402,1.906l-5.51,4.979h4.601l-0.394,1.882h-7.569l0.378-1.786
			l5.583-5.116H80.361z"/>
	</g>
	<g display="inline">
		<path fill="#FFFFFF" d="M76.815,117.072l0.244-1.156h4.404l-0.249,1.181l-3.413,3.084h2.85l-0.244,1.166h-4.688l0.234-1.106
			l3.458-3.169H76.815z"/>
	</g>
	<g display="inline">
		<path fill="#FFFFFF" d="M82.017,111.788L82.184,111h3.003l-0.17,0.805l-2.327,2.102h1.943l-0.166,0.795H81.27l0.16-0.754
			l2.357-2.16H82.017z"/>
	</g>
</g>
<g id="Kinda_bored">
	<path fill="#A1CC3B" d="M50,82c-17.645,0-32-14.355-32-32c0-17.645,14.355-32,32-32c17.645,0,32,14.355,32,32
		C82,67.645,67.645,82,50,82z M50,22c-15.439,0-28,12.561-28,28s12.561,28,28,28s28-12.561,28-28S65.439,22,50,22z"/>
	<path fill="#A1CC3B" d="M47.485,39.146l-9.839,1.786l0.536,2.952l2.611-0.474c0.433,1.01,1.515,1.628,2.643,1.423
		c1.127-0.205,1.924-1.163,1.974-2.261l2.611-0.474L47.485,39.146z"/>
	<path fill="#A1CC3B" d="M52.348,39.146l9.839,1.786l-0.536,2.952l-2.611-0.474c-0.433,1.01-1.515,1.628-2.643,1.423
		c-1.127-0.205-1.924-1.163-1.974-2.261l-2.611-0.474L52.348,39.146z"/>
	<path fill="#A1CC3B" d="M40.148,63.129c-0.748,0-1.465-0.421-1.808-1.142c-0.474-0.997-0.05-2.19,0.948-2.665
		c0.188-0.089,4.677-2.193,10.023-2.193c2.126,0,3.607,0.021,4.674,0.036c1.269,0.018,1.964,0.026,2.321-0.019
		c0.368-0.051,1.831-0.531,3.131-1.029c1.029-0.393,2.188,0.122,2.582,1.153c0.396,1.031-0.12,2.188-1.151,2.583
		c-0.679,0.26-2.976,1.118-4.039,1.258c-0.645,0.087-1.354,0.075-2.9,0.054c-1.055-0.016-2.517-0.036-4.618-0.036
		c-4.454,0-8.268,1.788-8.306,1.807C40.728,63.067,40.436,63.129,40.148,63.129z"/>
	<path fill="#FFFFFF" d="M50,182c-17.645,0-32-14.355-32-32c0-17.645,14.355-32,32-32c17.645,0,32,14.355,32,32
		C82,167.645,67.645,182,50,182z M50,122c-15.439,0-28,12.561-28,28s12.561,28,28,28s28-12.561,28-28S65.439,122,50,122z"/>
	<path fill="#FFFFFF" d="M47.485,139.146l-9.839,1.786l0.536,2.952l2.611-0.474c0.433,1.01,1.515,1.628,2.643,1.423
		c1.127-0.205,1.924-1.163,1.974-2.261l2.611-0.474L47.485,139.146z"/>
	<path fill="#FFFFFF" d="M52.348,139.146l9.839,1.786l-0.536,2.952l-2.611-0.474c-0.433,1.01-1.515,1.628-2.643,1.423
		c-1.127-0.205-1.924-1.163-1.974-2.261l-2.611-0.474L52.348,139.146z"/>
	<path fill="#FFFFFF" d="M40.148,163.129c-0.748,0-1.465-0.421-1.808-1.142c-0.474-0.997-0.05-2.19,0.948-2.665
		c0.188-0.089,4.677-2.193,10.023-2.193c2.126,0,3.607,0.021,4.674,0.036c1.269,0.018,1.964,0.026,2.321-0.019
		c0.368-0.051,1.831-0.531,3.131-1.029c1.029-0.393,2.188,0.122,2.582,1.153c0.396,1.031-0.12,2.188-1.151,2.583
		c-0.679,0.26-2.976,1.118-4.039,1.258c-0.645,0.087-1.354,0.075-2.9,0.054c-1.055-0.016-2.517-0.036-4.618-0.036
		c-4.454,0-8.268,1.788-8.306,1.807C40.728,163.067,40.436,163.129,40.148,163.129z"/>
</g>
<g id="Kinda_overwhelmed" display="none">
	<path display="inline" fill="#A1CC3B" d="M50,82c-17.645,0-32-14.355-32-32c0-17.645,14.355-32,32-32c17.645,0,32,14.355,32,32
		C82,67.645,67.645,82,50,82z M50,22c-15.439,0-28,12.561-28,28s12.561,28,28,28s28-12.561,28-28S65.439,22,50,22z"/>
	<g display="inline">
		<circle fill="#A1CC3B" cx="42.984" cy="41.5" r="3.438"/>
		<circle fill="#A1CC3B" cx="57.016" cy="41.5" r="3.438"/>
	</g>
	<g display="inline">
		<path fill="#A1CC3B" d="M62.098,65.278l3.526-1.954c-3.511-4.843-9.198-8.012-15.624-8.012c-6.426,0-12.113,3.168-15.624,8.012
			l3.526,1.954c2.802-3.621,7.176-5.966,12.098-5.966C54.922,59.312,59.296,61.657,62.098,65.278z"/>
	</g>
	<path display="inline" fill="#A1CC3B" d="M67.465,47.875l0.004-0.009l-0.083-0.052c-0.166-0.126-0.341-0.235-0.525-0.33
		l-4.117-2.585l-0.888,4.779c-0.056,0.2-0.093,0.402-0.113,0.609l-0.018,0.097l0.009,0.004c-0.037,0.551,0.038,1.116,0.275,1.657
		c0.785,1.792,2.875,2.608,4.667,1.822c1.792-0.785,2.608-2.875,1.822-4.667C68.26,48.659,67.895,48.221,67.465,47.875z"/>
	<path display="inline" fill="#FFFFFF" d="M50,182c-17.645,0-32-14.355-32-32c0-17.645,14.355-32,32-32c17.645,0,32,14.355,32,32
		C82,167.645,67.645,182,50,182z M50,122c-15.439,0-28,12.561-28,28s12.561,28,28,28s28-12.561,28-28S65.439,122,50,122z"/>
	<g display="inline">
		<circle fill="#FFFFFF" cx="42.984" cy="141.5" r="3.438"/>
		<circle fill="#FFFFFF" cx="57.016" cy="141.5" r="3.438"/>
	</g>
	<g display="inline">
		<path fill="#FFFFFF" d="M62.098,165.278l3.526-1.954c-3.511-4.843-9.198-8.012-15.624-8.012c-6.426,0-12.113,3.168-15.624,8.012
			l3.526,1.954c2.802-3.621,7.176-5.966,12.098-5.966C54.922,159.312,59.296,161.657,62.098,165.278z"/>
	</g>
	<path display="inline" fill="#FFFFFF" d="M67.465,147.875l0.004-0.009l-0.083-0.052c-0.166-0.126-0.341-0.235-0.525-0.33
		l-4.117-2.585l-0.888,4.779c-0.056,0.2-0.093,0.402-0.113,0.609l-0.018,0.097l0.009,0.004c-0.037,0.551,0.038,1.116,0.275,1.657
		c0.785,1.792,2.875,2.608,4.667,1.822c1.792-0.785,2.608-2.875,1.822-4.667C68.26,148.659,67.895,148.221,67.465,147.875z"/>
</g>
<g id="Stop_the_madness" display="none">
	<path display="inline" fill="#A1CC3B" d="M50,82c-17.645,0-32-14.355-32-32c0-17.645,14.355-32,32-32c17.645,0,32,14.355,32,32
		C82,67.645,67.645,82,50,82z M50,22c-15.439,0-28,12.561-28,28s12.561,28,28,28s28-12.561,28-28S65.439,22,50,22z"/>
	<g display="inline">
		<circle fill="#A1CC3B" cx="42.984" cy="41.5" r="3.438"/>
		<circle fill="#A1CC3B" cx="57.016" cy="41.5" r="3.438"/>
	</g>
	<g display="inline">
		<g>
			<path fill="#A1CC3B" d="M85.815,72.875l0.004-0.009l-0.083-0.052c-0.166-0.126-0.341-0.235-0.525-0.33l-4.117-2.585l-0.888,4.779
				c-0.056,0.2-0.093,0.402-0.113,0.609l-0.018,0.097l0.009,0.004c-0.037,0.551,0.038,1.116,0.275,1.657
				c0.785,1.792,2.875,2.608,4.667,1.822c1.792-0.785,2.608-2.875,1.822-4.667C86.61,73.659,86.246,73.221,85.815,72.875z"/>
			<path fill="#A1CC3B" d="M91,56.222v-0.01l-0.057-0.018c-0.201-0.057-0.383-0.096-0.589-0.117l-4.765-0.914l0.913,4.776
				c0.021,0.206,0.062,0.086,0.118,0.287L86.642,60h0.01c0.165,1,0.441,1.349,0.858,1.766c1.383,1.384,3.626,1.547,5.01,0.164
				c1.384-1.383,1.346-3.545-0.037-4.929C92.066,56.583,91,56.388,91,56.222z"/>
			<path fill="#A1CC3B" d="M91.021,40.209L91.016,40.2l-0.214,0.092c-0.204,0.044-0.461,0.136-0.653,0.214l-4.677,1.442l3.022,3.804
				c0.115,0.172,0.142,0.161,0.286,0.311l-0.039-0.096l0.009-0.005c0.614,0.807,0.963,0.877,1.527,1.051
				c1.87,0.577,3.899-0.383,4.476-2.253c0.577-1.87-0.328-3.872-2.198-4.449C91.991,40.139,91.099,40.355,91.021,40.209z"/>
		</g>
		<g>
			<path fill="#A1CC3B" d="M14.185,72.875l-0.004-0.009l0.083-0.052c0.166-0.126,0.341-0.235,0.525-0.33l4.117-2.585l0.888,4.779
				c0.056,0.2,0.093,0.402,0.113,0.609l0.018,0.097l-0.009,0.004c0.037,0.551-0.038,1.116-0.275,1.657
				c-0.785,1.792-2.875,2.608-4.667,1.822c-1.792-0.785-2.608-2.875-1.822-4.667C13.389,73.659,13.754,73.221,14.185,72.875z"/>
			<path fill="#A1CC3B" d="M8,56.222v-0.01l0.557-0.018c0.201-0.057,0.633-0.096,0.839-0.117l4.89-0.914l-1.03,4.776
				C13.235,60.145,13,60.025,13,60.226V60h0.348c-0.165,1-0.441,1.349-0.858,1.766c-1.383,1.384-3.626,1.547-5.01,0.164
				c-1.384-1.383-1.846-3.545-0.463-4.929C7.434,56.583,8,56.388,8,56.222z"/>
			<path fill="#A1CC3B" d="M8.979,40.209L8.984,40.2l0.214,0.092c0.204,0.044,0.461,0.136,0.653,0.214l4.677,1.442l-3.022,3.804
				c-0.115,0.172-0.142,0.161-0.286,0.311l0.039-0.096l-0.009-0.005c-0.614,0.807-0.963,0.877-1.527,1.051
				c-1.87,0.577-3.899-0.383-4.476-2.253c-0.577-1.87,0.328-3.872,2.198-4.449C8.009,40.139,8.901,40.355,8.979,40.209z"/>
		</g>
	</g>
	<path display="inline" fill="#A1CC3B" d="M63.288,60.147l0.018-0.01c-2.991-4.126-7.835-6.824-13.309-6.824
		c-5.235,0-9.89,2.472-12.903,6.297c-0.751,0.848-1.21,1.96-1.21,3.182c0,2.656,2.153,4.809,4.809,4.809
		c0.404,0,0.795-0.055,1.17-0.149c1.888-0.232,5.653-0.652,8.134-0.652c2.477,0,6.218,0.419,8.101,0.651
		c0.377,0.095,0.769,0.151,1.175,0.151c2.656,0,4.809-2.153,4.809-4.809C64.083,61.814,63.789,60.906,63.288,60.147z"/>
	<path display="inline" fill="#FFFFFF" d="M50,182c-17.645,0-32-14.355-32-32c0-17.645,14.355-32,32-32c17.645,0,32,14.355,32,32
		C82,167.645,67.645,182,50,182z M50,122c-15.439,0-28,12.561-28,28s12.561,28,28,28s28-12.561,28-28S65.439,122,50,122z"/>
	<g display="inline">
		<circle fill="#FFFFFF" cx="42.984" cy="141.5" r="3.438"/>
		<circle fill="#FFFFFF" cx="57.016" cy="141.5" r="3.438"/>
	</g>
	<g display="inline">
		<g>
			<path fill="#FFFFFF" d="M85.815,172.875l0.004-0.009l-0.083-0.052c-0.166-0.126-0.341-0.235-0.525-0.33l-4.117-2.585
				l-0.888,4.779c-0.056,0.2-0.093,0.402-0.113,0.609l-0.018,0.097l0.009,0.004c-0.037,0.551,0.038,1.116,0.275,1.657
				c0.785,1.792,2.875,2.608,4.667,1.822c1.792-0.785,2.608-2.875,1.822-4.667C86.61,173.659,86.246,173.221,85.815,172.875z"/>
			<path fill="#FFFFFF" d="M91,156.222v-0.01l-0.057-0.018c-0.201-0.057-0.383-0.096-0.589-0.117l-4.765-0.914l0.913,4.776
				c0.021,0.206,0.062,0.086,0.118,0.287L86.642,160h0.01c0.165,1,0.441,1.349,0.858,1.766c1.383,1.384,3.626,1.547,5.01,0.164
				c1.384-1.383,1.346-3.545-0.037-4.929C92.066,156.583,91,156.388,91,156.222z"/>
			<path fill="#FFFFFF" d="M91.021,140.209l-0.005-0.009l-0.214,0.092c-0.204,0.044-0.461,0.136-0.653,0.214l-4.677,1.442
				l3.022,3.804c0.115,0.173,0.142,0.161,0.286,0.311l-0.039-0.096l0.009-0.005c0.614,0.807,0.963,0.877,1.527,1.051
				c1.87,0.577,3.899-0.383,4.476-2.253c0.577-1.87-0.328-3.872-2.198-4.449C91.991,140.139,91.099,140.355,91.021,140.209z"/>
		</g>
		<g>
			<path fill="#FFFFFF" d="M14.185,172.875l-0.004-0.009l0.083-0.052c0.166-0.126,0.341-0.235,0.525-0.33l4.117-2.585l0.888,4.779
				c0.056,0.2,0.093,0.402,0.113,0.609l0.018,0.097l-0.009,0.004c0.037,0.551-0.038,1.116-0.275,1.657
				c-0.785,1.792-2.875,2.608-4.667,1.822c-1.792-0.785-2.608-2.875-1.822-4.667C13.389,173.659,13.754,173.221,14.185,172.875z"/>
			<path fill="#FFFFFF" d="M8,156.222v-0.01l0.557-0.018c0.201-0.057,0.633-0.096,0.839-0.117l4.89-0.914l-1.03,4.776
				c-0.021,0.206-0.255,0.086-0.255,0.287V160h0.348c-0.165,1-0.441,1.349-0.858,1.766c-1.383,1.384-3.626,1.547-5.01,0.164
				c-1.384-1.383-1.846-3.545-0.463-4.929C7.434,156.583,8,156.388,8,156.222z"/>
			<path fill="#FFFFFF" d="M8.979,140.209l0.005-0.009l0.214,0.092c0.204,0.044,0.461,0.136,0.653,0.214l4.677,1.442l-3.022,3.804
				c-0.115,0.173-0.142,0.161-0.286,0.311l0.039-0.096l-0.009-0.005c-0.614,0.807-0.963,0.877-1.527,1.051
				c-1.87,0.577-3.899-0.383-4.476-2.253c-0.577-1.87,0.328-3.872,2.198-4.449C8.009,140.139,8.901,140.355,8.979,140.209z"/>
		</g>
	</g>
	<path display="inline" fill="#FFFFFF" d="M63.288,160.147l0.018-0.01c-2.991-4.126-7.835-6.824-13.309-6.824
		c-5.235,0-9.89,2.472-12.903,6.297c-0.751,0.848-1.21,1.96-1.21,3.182c0,2.656,2.153,4.809,4.809,4.809
		c0.404,0,0.795-0.055,1.17-0.149c1.888-0.232,5.653-0.652,8.134-0.652c2.477,0,6.218,0.419,8.101,0.651
		c0.377,0.095,0.769,0.151,1.175,0.151c2.656,0,4.809-2.153,4.809-4.809C64.083,161.814,63.789,160.906,63.288,160.147z"/>
	<path display="inline" fill="#FFFFFF" d="M113.867,188.148c-2.26,0-7.031-1.912-9.387-4.652c-2.479,2.547-6.969,4.295-9.036,4.295
		c-2.16,0-6.61-1.747-9.058-4.293c-2.388,2.739-7.203,4.65-9.365,4.65c-2.21,0-6.816-1.83-9.223-4.472
		c-2.438,2.642-7.086,4.472-9.2,4.472c-2.21,0-6.816-1.83-9.223-4.472c-2.438,2.642-7.086,4.472-9.2,4.472
		c-2.21,0-6.816-1.83-9.223-4.472c-2.438,2.642-7.086,4.472-9.2,4.472c-2.21,0-6.816-1.83-9.223-4.472
		c-2.438,2.642-7.086,4.472-9.2,4.472c-2.21,0-6.816-1.83-9.223-4.472c-2.347,2.544-6.729,4.325-8.941,4.455v15.536H117.5v-16.404
		C116.077,187.825,114.75,188.148,113.867,188.148z"/>
	<path display="inline" fill="#A1CC3B" d="M100,86.508c-1.758,0.809-3.483,1.283-4.556,1.283c-2.16,0-6.61-1.747-9.058-4.293
		c-2.388,2.739-7.203,4.65-9.365,4.65c-2.21,0-6.816-1.83-9.223-4.472c-2.438,2.642-7.086,4.472-9.2,4.472
		c-2.21,0-6.816-1.83-9.223-4.472c-2.438,2.642-7.086,4.472-9.2,4.472c-2.21,0-6.816-1.83-9.223-4.472
		c-2.438,2.642-7.086,4.472-9.2,4.472c-2.21,0-6.816-1.83-9.223-4.472c-2.438,2.642-7.086,4.472-9.2,4.472
		c-0.845,0-2.041-0.271-3.33-0.749V100h100V86.508z"/>
</g>
</svg>
